<svg version="1.1" id="el_jN0yIcdtG" xmlns="http://www.w3.org/2000/svg" xmlns:xlink="http://www.w3.org/1999/xlink" x="0px" y="0px" viewBox="0 0 80 80" style="enable-background:new 0 0 80 80;" xml:space="preserve"><style>@-webkit-keyframes kf_el_6O4255PaGw_an_MTxqb5ucz{0%{opacity: 1;}51.11%{opacity: 0;}100%{opacity: 1;}}@keyframes kf_el_6O4255PaGw_an_MTxqb5ucz{0%{opacity: 1;}51.11%{opacity: 0;}100%{opacity: 1;}}@-webkit-keyframes kf_el_HBoBfKOaNx_an_Mo5hwrgOG{0%{-webkit-transform: translate(21.087498664855957px, 57.60621452331543px) rotate(0deg) translate(-21.087498664855957px, -57.60621452331543px);transform: translate(21.087498664855957px, 57.60621452331543px) rotate(0deg) translate(-21.087498664855957px, -57.60621452331543px);}100%{-webkit-transform: translate(21.087498664855957px, 57.60621452331543px) rotate(360deg) translate(-21.087498664855957px, -57.60621452331543px);transform: translate(21.087498664855957px, 57.60621452331543px) rotate(360deg) translate(-21.087498664855957px, -57.60621452331543px);}}@keyframes kf_el_HBoBfKOaNx_an_Mo5hwrgOG{0%{-webkit-transform: translate(21.087498664855957px, 57.60621452331543px) rotate(0deg) translate(-21.087498664855957px, -57.60621452331543px);transform: translate(21.087498664855957px, 57.60621452331543px) rotate(0deg) translate(-21.087498664855957px, -57.60621452331543px);}100%{-webkit-transform: translate(21.087498664855957px, 57.60621452331543px) rotate(360deg) translate(-21.087498664855957px, -57.60621452331543px);transform: translate(21.087498664855957px, 57.60621452331543px) rotate(360deg) translate(-21.087498664855957px, -57.60621452331543px);}}#el_jN0yIcdtG *{-webkit-animation-duration: 3s;animation-duration: 3s;-webkit-animation-iteration-count: infinite;animation-iteration-count: infinite;-webkit-animation-timing-function: cubic-bezier(0, 0, 1, 1);animation-timing-function: cubic-bezier(0, 0, 1, 1);}#el_xxRAI4xwQ4{fill: #95ABFC;}#el_K1_hdbqkYF{fill: #95ABFC;}#el_KFVkhix_fk{fill: #95ABFC;}#el_gjG1zE5XFV{fill: #95ABFC;}#el_nt7t2o_WQG{fill: #95ABFC;}#el_qLHo6_mf6i{fill: #95ABFC;}#el_oSWh9Q-ozI{fill: #576bff;}#el_IaxHIsCfEw{fill: #576bff;}#el_mTO3XVnNo5{fill: #1AE5BE;}#el_HBoBfKOaNx{fill: #1AE5BE;}#el_WZYGllB-3H{fill: #576bff;}#el_6O4255PaGw{fill: #1AE5BE;-webkit-animation-fill-mode: backwards;animation-fill-mode: backwards;opacity: 1;-webkit-animation-name: kf_el_6O4255PaGw_an_MTxqb5ucz;animation-name: kf_el_6O4255PaGw_an_MTxqb5ucz;-webkit-animation-timing-function: cubic-bezier(0, 0, 1, 1);animation-timing-function: cubic-bezier(0, 0, 1, 1);}#el_HBoBfKOaNx_an_Mo5hwrgOG{-webkit-animation-fill-mode: backwards;animation-fill-mode: backwards;-webkit-transform: translate(21.087498664855957px, 57.60621452331543px) rotate(0deg) translate(-21.087498664855957px, -57.60621452331543px);transform: translate(21.087498664855957px, 57.60621452331543px) rotate(0deg) translate(-21.087498664855957px, -57.60621452331543px);-webkit-animation-name: kf_el_HBoBfKOaNx_an_Mo5hwrgOG;animation-name: kf_el_HBoBfKOaNx_an_Mo5hwrgOG;-webkit-animation-timing-function: cubic-bezier(0, 0, 1, 1);animation-timing-function: cubic-bezier(0, 0, 1, 1);}</style>

<g id="el_BIwzCExaVa">
	<path d="M47.5,9.8l4-4l1.6,1.6l-4,4L47.5,9.8z" id="el_xxRAI4xwQ4"/>
	<path d="M41.1,6.1l-8.6,8.6h3.2l7.1-7.1L41.1,6.1z" id="el_K1_hdbqkYF"/>
	<path d="M54.9,16.7L54.9,16.7L54.9,16.7L54.9,16.7z" id="el_KFVkhix_fk"/>
	<path d="M33.8,16.7L33.8,16.7L33.8,16.7L33.8,16.7z" id="el_gjG1zE5XFV"/>
	<path d="M22.3,16.7c-3,0-5.4,2.4-5.4,5.4v16.2l3.2-0.5V22.1c0-3,2.4-5.4,5.4-5.4H22.3z" id="el_nt7t2o_WQG"/>
	<path d="M61.7,32.1c-1.9,0-3.6,0.9-4.8,2.4c-1.1,1.5-1.5,3.4-1,5.2c0.7-2.6,3.1-4.4,5.8-4.4h13.2v-3.2H61.7z" id="el_qLHo6_mf6i"/>
</g>
<path d="M75.9,30.4h-1.7v-8.3c0-4-3.3-7.3-7.3-7.3h-3.7l-11-11c-0.4-0.4-1-0.4-1.3,0l-4.7,4.7l-4.3-4.3&#10;&#9;c-0.4-0.4-1-0.4-1.3,0L29.8,14.8h-7.5c-4,0-7.3,3.3-7.3,7.3v17.1h1.9V22.1c0-3,2.4-5.4,5.4-5.4h8.2l0,0l0,0h21.1l0,0l0,0h15.1&#10;&#9;c3,0,5.4,2.4,5.4,5.4v8.3H61.7c-4.3,0-7.9,3.5-7.9,7.9s3.5,7.9,7.9,7.9h10.6v8.3c0,3-2.4,5.4-5.4,5.4H39.7v1.9h27.2&#10;&#9;c4,0,7.3-3.3,7.3-7.3v-8.3h1.7c0.5,0,1-0.4,1-1V31.4C76.8,30.8,76.4,30.4,75.9,30.4z M51.5,5.8l9,9h-8l-5-5L51.5,5.8z M32.5,14.8&#10;&#9;l8.6-8.6l8.6,8.6H32.5z M74.9,44.3H61.7c-3.3,0-6-2.7-6-6s2.7-6,6-6h13.2V44.3z" id="el_oSWh9Q-ozI"/>
<path d="M58.4,38.3c0,2,1.6,3.6,3.6,3.6s3.6-1.6,3.6-3.6S64,34.7,62,34.7S58.4,36.3,58.4,38.3z M61.9,36.6&#10;&#9;c0.9,0,1.6,0.7,1.6,1.6c0,0.9-0.7,1.6-1.6,1.6c-0.9,0-1.6-0.7-1.6-1.6C60.3,37.4,61,36.6,61.9,36.6z" id="el_IaxHIsCfEw"/>
<path d="M21.1,42.9c-8.1,0-14.6,6.5-14.6,14.6S13,72.1,21.1,72.1s14.6-6.5,14.6-14.6S29.2,42.9,21.1,42.9z M21.1,70.1&#10;&#9;c-7,0-12.7-5.7-12.7-12.7s5.7-12.7,12.7-12.7s12.7,5.7,12.7,12.7C33.8,64.5,28.1,70.1,21.1,70.1z" id="el_mTO3XVnNo5"/>
<g id="el_HBoBfKOaNx_an_Mo5hwrgOG" data-animator-group="true" data-animator-type="1"><path d="M35.3,43.4C35.3,43.3,35.2,43.3,35.3,43.4c-7.9-7.8-20.5-7.8-28.3-0.1c0,0-0.1,0-0.1,0.1c0,0,0,0.1-0.1,0.1&#10;&#9;c-7.7,7.8-7.7,20.4,0,28.2c0,0,0,0.1,0.1,0.1c0,0,0.1,0,0.1,0.1c7.8,7.7,20.4,7.7,28.2,0c0.1,0,0.1-0.1,0.1-0.1&#10;&#9;C43.1,63.8,43.1,51.2,35.3,43.4L35.3,43.4z M38.2,58.4h1c-0.2,4.1-1.9,8.1-4.6,11.2l-0.7-0.7c-0.4-0.4-1-0.4-1.4,0s-0.4,1,0,1.3&#10;&#9;l0.7,0.7c-3.1,2.8-7,4.4-11.2,4.6v-1c0-0.5-0.4-1-1-1c-0.5,0-1,0.4-1,1v1c-4-0.1-7.9-1.8-11-4.6l0.7-0.7c0.4-0.4,0.4-1,0-1.3&#10;&#9;c-0.4-0.4-1-0.4-1.3,0l-0.7,0.7c-2.8-3.1-4.4-7-4.6-11.2h1c0.5,0,1-0.4,1-1s-0.4-1-1-1H3c0.2-4.1,1.9-8.1,4.6-11.2L8.3,46&#10;&#9;c0.4,0.4,1,0.4,1.3,0c0.4-0.4,0.4-1,0-1.4L9,44c3.1-2.8,7-4.4,11.2-4.6v1c0,0.5,0.4,1,1,1c0.5,0,1-0.4,1-1v-1&#10;&#9;c4.1,0.2,8.1,1.9,11.2,4.6l-0.7,0.7c-0.4,0.4-0.4,1,0,1.3c0.4,0.4,1,0.4,1.3,0l0.7-0.7c2.8,3.1,4.4,7,4.6,11.2h-1c-0.5,0-1,0.4-1,1&#10;&#9;C37.3,58,37.7,58.4,38.2,58.4L38.2,58.4z" id="el_HBoBfKOaNx"/></g>
<path d="M58.4,38.2c0,2,1.6,3.6,3.6,3.6s3.6-1.6,3.6-3.6S64,34.6,62,34.6C60,34.6,58.4,36.2,58.4,38.2z M61.9,36.5&#10;&#9;c0.9,0,1.6,0.7,1.6,1.6c0,0.9-0.7,1.6-1.6,1.6c-0.9,0-1.6-0.7-1.6-1.6C60.3,37.3,61,36.5,61.9,36.5z" id="el_WZYGllB-3H"/>
<path id="el_6O4255PaGw" d="M24.5,59.8c0.3-0.6,0.5-1.3,0.5-1.9c0-2.2-1.8-4.1-4.1-4.1l-0.7,0.1l1.1-3c2.5,0,4.8,1.4,6.1,3.4&#10;&#9;c0,0,0.3,1.6-0.7,3.3C25.8,59.1,24.5,59.8,24.5,59.8z M15.7,50.8h2.9v3.4h-2.9C15.7,54.2,15.7,50.8,15.7,50.8z M27.8,55.2&#10;&#9;c0.5,1.1,0.6,1.8,0.6,2.7c-0.1,4.4-3.1,7-7.1,7h-5.6V60h1.7c0,0,0.9,1.9,3.3,1.9c1.1,0,2.3-0.4,3.1-1.2c0,0,1.5-0.5,2.8-2.1&#10;&#9;C27.7,57.2,27.8,55.2,27.8,55.2z"/>
</svg>