<svg version="1.1" id="el_ims6RcgWR" xmlns="http://www.w3.org/2000/svg" xmlns:xlink="http://www.w3.org/1999/xlink" x="0px" y="0px" viewBox="0 0 80 80" style="enable-background:new 0 0 80 80;" xml:space="preserve"><style>@-webkit-keyframes kf_el_dyQuEDdzDu_an_pb-gMUfkC{0%{-webkit-transform: translate(61.29999923706055px, 62.69999694824219px) rotate(0deg) translate(-61.29999923706055px, -62.69999694824219px);transform: translate(61.29999923706055px, 62.69999694824219px) rotate(0deg) translate(-61.29999923706055px, -62.69999694824219px);}100%{-webkit-transform: translate(61.29999923706055px, 62.69999694824219px) rotate(-180deg) translate(-61.29999923706055px, -62.69999694824219px);transform: translate(61.29999923706055px, 62.69999694824219px) rotate(-180deg) translate(-61.29999923706055px, -62.69999694824219px);}}@keyframes kf_el_dyQuEDdzDu_an_pb-gMUfkC{0%{-webkit-transform: translate(61.29999923706055px, 62.69999694824219px) rotate(0deg) translate(-61.29999923706055px, -62.69999694824219px);transform: translate(61.29999923706055px, 62.69999694824219px) rotate(0deg) translate(-61.29999923706055px, -62.69999694824219px);}100%{-webkit-transform: translate(61.29999923706055px, 62.69999694824219px) rotate(-180deg) translate(-61.29999923706055px, -62.69999694824219px);transform: translate(61.29999923706055px, 62.69999694824219px) rotate(-180deg) translate(-61.29999923706055px, -62.69999694824219px);}}@-webkit-keyframes kf_el_np8QBCstYF_an_q_5wroS96{0%{-webkit-transform: translate(61.400007247924805px, 62.60000801086426px) rotate(0deg) translate(-61.400007247924805px, -62.60000801086426px);transform: translate(61.400007247924805px, 62.60000801086426px) rotate(0deg) translate(-61.400007247924805px, -62.60000801086426px);}100%{-webkit-transform: translate(61.400007247924805px, 62.60000801086426px) rotate(-180deg) translate(-61.400007247924805px, -62.60000801086426px);transform: translate(61.400007247924805px, 62.60000801086426px) rotate(-180deg) translate(-61.400007247924805px, -62.60000801086426px);}}@keyframes kf_el_np8QBCstYF_an_q_5wroS96{0%{-webkit-transform: translate(61.400007247924805px, 62.60000801086426px) rotate(0deg) translate(-61.400007247924805px, -62.60000801086426px);transform: translate(61.400007247924805px, 62.60000801086426px) rotate(0deg) translate(-61.400007247924805px, -62.60000801086426px);}100%{-webkit-transform: translate(61.400007247924805px, 62.60000801086426px) rotate(-180deg) translate(-61.400007247924805px, -62.60000801086426px);transform: translate(61.400007247924805px, 62.60000801086426px) rotate(-180deg) translate(-61.400007247924805px, -62.60000801086426px);}}@-webkit-keyframes kf_el_yeWA44ZK3T_an_0BaTEVQKI{0%{-webkit-transform: translate(61.33699035644531px, 62.363006591796875px) rotate(0deg) translate(-61.33699035644531px, -62.363006591796875px);transform: translate(61.33699035644531px, 62.363006591796875px) rotate(0deg) translate(-61.33699035644531px, -62.363006591796875px);}100%{-webkit-transform: translate(61.33699035644531px, 62.363006591796875px) rotate(180deg) translate(-61.33699035644531px, -62.363006591796875px);transform: translate(61.33699035644531px, 62.363006591796875px) rotate(180deg) translate(-61.33699035644531px, -62.363006591796875px);}}@keyframes kf_el_yeWA44ZK3T_an_0BaTEVQKI{0%{-webkit-transform: translate(61.33699035644531px, 62.363006591796875px) rotate(0deg) translate(-61.33699035644531px, -62.363006591796875px);transform: translate(61.33699035644531px, 62.363006591796875px) rotate(0deg) translate(-61.33699035644531px, -62.363006591796875px);}100%{-webkit-transform: translate(61.33699035644531px, 62.363006591796875px) rotate(180deg) translate(-61.33699035644531px, -62.363006591796875px);transform: translate(61.33699035644531px, 62.363006591796875px) rotate(180deg) translate(-61.33699035644531px, -62.363006591796875px);}}@-webkit-keyframes kf_el_VkNKEJDUON_an_rR1_rJgVJ{0%{-webkit-transform: translate(37.44999980926514px, 36.14999961853027px) rotate(0deg) translate(-37.44999980926514px, -36.14999961853027px);transform: translate(37.44999980926514px, 36.14999961853027px) rotate(0deg) translate(-37.44999980926514px, -36.14999961853027px);}11.11%{-webkit-transform: translate(37.44999980926514px, 36.14999961853027px) rotate(90deg) translate(-37.44999980926514px, -36.14999961853027px);transform: translate(37.44999980926514px, 36.14999961853027px) rotate(90deg) translate(-37.44999980926514px, -36.14999961853027px);}27.78%{-webkit-transform: translate(37.44999980926514px, 36.14999961853027px) rotate(180deg) translate(-37.44999980926514px, -36.14999961853027px);transform: translate(37.44999980926514px, 36.14999961853027px) rotate(180deg) translate(-37.44999980926514px, -36.14999961853027px);}44.44%{-webkit-transform: translate(37.44999980926514px, 36.14999961853027px) rotate(360deg) translate(-37.44999980926514px, -36.14999961853027px);transform: translate(37.44999980926514px, 36.14999961853027px) rotate(360deg) translate(-37.44999980926514px, -36.14999961853027px);}61.11%{-webkit-transform: translate(37.44999980926514px, 36.14999961853027px) rotate(450deg) translate(-37.44999980926514px, -36.14999961853027px);transform: translate(37.44999980926514px, 36.14999961853027px) rotate(450deg) translate(-37.44999980926514px, -36.14999961853027px);}77.78%{-webkit-transform: translate(37.44999980926514px, 36.14999961853027px) rotate(540deg) translate(-37.44999980926514px, -36.14999961853027px);transform: translate(37.44999980926514px, 36.14999961853027px) rotate(540deg) translate(-37.44999980926514px, -36.14999961853027px);}100%{-webkit-transform: translate(37.44999980926514px, 36.14999961853027px) rotate(720deg) translate(-37.44999980926514px, -36.14999961853027px);transform: translate(37.44999980926514px, 36.14999961853027px) rotate(720deg) translate(-37.44999980926514px, -36.14999961853027px);}}@keyframes kf_el_VkNKEJDUON_an_rR1_rJgVJ{0%{-webkit-transform: translate(37.44999980926514px, 36.14999961853027px) rotate(0deg) translate(-37.44999980926514px, -36.14999961853027px);transform: translate(37.44999980926514px, 36.14999961853027px) rotate(0deg) translate(-37.44999980926514px, -36.14999961853027px);}11.11%{-webkit-transform: translate(37.44999980926514px, 36.14999961853027px) rotate(90deg) translate(-37.44999980926514px, -36.14999961853027px);transform: translate(37.44999980926514px, 36.14999961853027px) rotate(90deg) translate(-37.44999980926514px, -36.14999961853027px);}27.78%{-webkit-transform: translate(37.44999980926514px, 36.14999961853027px) rotate(180deg) translate(-37.44999980926514px, -36.14999961853027px);transform: translate(37.44999980926514px, 36.14999961853027px) rotate(180deg) translate(-37.44999980926514px, -36.14999961853027px);}44.44%{-webkit-transform: translate(37.44999980926514px, 36.14999961853027px) rotate(360deg) translate(-37.44999980926514px, -36.14999961853027px);transform: translate(37.44999980926514px, 36.14999961853027px) rotate(360deg) translate(-37.44999980926514px, -36.14999961853027px);}61.11%{-webkit-transform: translate(37.44999980926514px, 36.14999961853027px) rotate(450deg) translate(-37.44999980926514px, -36.14999961853027px);transform: translate(37.44999980926514px, 36.14999961853027px) rotate(450deg) translate(-37.44999980926514px, -36.14999961853027px);}77.78%{-webkit-transform: translate(37.44999980926514px, 36.14999961853027px) rotate(540deg) translate(-37.44999980926514px, -36.14999961853027px);transform: translate(37.44999980926514px, 36.14999961853027px) rotate(540deg) translate(-37.44999980926514px, -36.14999961853027px);}100%{-webkit-transform: translate(37.44999980926514px, 36.14999961853027px) rotate(720deg) translate(-37.44999980926514px, -36.14999961853027px);transform: translate(37.44999980926514px, 36.14999961853027px) rotate(720deg) translate(-37.44999980926514px, -36.14999961853027px);}}#el_ims6RcgWR *{-webkit-animation-duration: 3s;animation-duration: 3s;-webkit-animation-iteration-count: infinite;animation-iteration-count: infinite;-webkit-animation-timing-function: cubic-bezier(0, 0, 1, 1);animation-timing-function: cubic-bezier(0, 0, 1, 1);}#el_kxpq2UCa0z{fill: #D4E1F4;}#el_yt2mLwdCn0{fill: #576bff;}#el_ZBUe9SXtiY{fill: #576bff;}#el_JzVTPYqhVu{fill: #D4E1F4;visibility: hidden;}#el_LEf_r_Jbxd{fill: #D4E1F4;visibility: hidden;}#el_VkNKEJDUON{fill: #576bff;}#el_Oxs8_xbpgv{fill: #1AE5BE;}#el_np8QBCstYF{fill: #576bff;}#el_JKjKtmX2ub{fill: #576bff;}#el_z8EJFyvUzS{fill: #1AE5BE;}#el_dyQuEDdzDu{fill: #1AE5BE;}#el_yeWA44ZK3T{fill: #1AE5BE;}#el_VkNKEJDUON_an_rR1_rJgVJ{-webkit-animation-fill-mode: forwards;animation-fill-mode: forwards;-webkit-transform: translate(37.44999980926514px, 36.14999961853027px) rotate(0deg) translate(-37.44999980926514px, -36.14999961853027px);transform: translate(37.44999980926514px, 36.14999961853027px) rotate(0deg) translate(-37.44999980926514px, -36.14999961853027px);-webkit-animation-name: kf_el_VkNKEJDUON_an_rR1_rJgVJ;animation-name: kf_el_VkNKEJDUON_an_rR1_rJgVJ;-webkit-animation-timing-function: cubic-bezier(0, 0, 1, 1);animation-timing-function: cubic-bezier(0, 0, 1, 1);}#el_LEf_r_Jbxd_an_iQEDluQxU{-webkit-transform: translate(33.05000019073486px, 26.34999942779541px) rotate(0deg) translate(-33.05000019073486px, -26.34999942779541px);transform: translate(33.05000019073486px, 26.34999942779541px) rotate(0deg) translate(-33.05000019073486px, -26.34999942779541px);}#el_JzVTPYqhVu_an_gFcMblxFg{-webkit-transform: translate(31.199999809265137px, 39.80000019073486px) rotate(0deg) translate(-31.199999809265137px, -39.80000019073486px);transform: translate(31.199999809265137px, 39.80000019073486px) rotate(0deg) translate(-31.199999809265137px, -39.80000019073486px);}#el_yeWA44ZK3T_an_0BaTEVQKI{-webkit-animation-fill-mode: forwards;animation-fill-mode: forwards;-webkit-transform: translate(61.33699035644531px, 62.363006591796875px) rotate(0deg) translate(-61.33699035644531px, -62.363006591796875px);transform: translate(61.33699035644531px, 62.363006591796875px) rotate(0deg) translate(-61.33699035644531px, -62.363006591796875px);-webkit-animation-name: kf_el_yeWA44ZK3T_an_0BaTEVQKI;animation-name: kf_el_yeWA44ZK3T_an_0BaTEVQKI;-webkit-animation-timing-function: cubic-bezier(0, 0, 1, 1);animation-timing-function: cubic-bezier(0, 0, 1, 1);}#el_np8QBCstYF_an_q_5wroS96{-webkit-animation-fill-mode: forwards;animation-fill-mode: forwards;-webkit-transform: translate(61.400007247924805px, 62.60000801086426px) rotate(0deg) translate(-61.400007247924805px, -62.60000801086426px);transform: translate(61.400007247924805px, 62.60000801086426px) rotate(0deg) translate(-61.400007247924805px, -62.60000801086426px);-webkit-animation-name: kf_el_np8QBCstYF_an_q_5wroS96;animation-name: kf_el_np8QBCstYF_an_q_5wroS96;-webkit-animation-timing-function: cubic-bezier(0, 0, 1, 1);animation-timing-function: cubic-bezier(0, 0, 1, 1);}#el_ZBUe9SXtiY_an_Iggs6oLfM{-webkit-transform: translate(37.87620258331299px, 37.374704360961914px) rotate(0deg) translate(-37.87620258331299px, -37.374704360961914px);transform: translate(37.87620258331299px, 37.374704360961914px) rotate(0deg) translate(-37.87620258331299px, -37.374704360961914px);}#el_dyQuEDdzDu_an_pb-gMUfkC{-webkit-animation-fill-mode: forwards;animation-fill-mode: forwards;-webkit-transform: translate(61.29999923706055px, 62.69999694824219px) rotate(0deg) translate(-61.29999923706055px, -62.69999694824219px);transform: translate(61.29999923706055px, 62.69999694824219px) rotate(0deg) translate(-61.29999923706055px, -62.69999694824219px);-webkit-animation-name: kf_el_dyQuEDdzDu_an_pb-gMUfkC;animation-name: kf_el_dyQuEDdzDu_an_pb-gMUfkC;-webkit-animation-timing-function: cubic-bezier(0, 0, 1, 1);animation-timing-function: cubic-bezier(0, 0, 1, 1);}</style>


<g id="el_tNJGXjZ-lD">
	<path d="M37.9,10.7c-14.7,0-26.6,11.9-26.6,26.6s11.9,26.6,26.6,26.6c2.4,0,4.9-0.3,7.2-1c0.6-0.2,0.9-0.8,0.7-1.3&#10;&#9;&#9;s-0.8-0.9-1.3-0.7c-2.2,0.6-4.4,0.9-6.6,0.9c-13.5,0-24.5-11-24.5-24.5s11-24.5,24.5-24.5s24.5,11,24.5,24.5c0,2.7-0.4,5.4-1.3,8&#10;&#9;&#9;c-0.2,0.6,0.1,1.2,0.7,1.4c0.6,0.2,1.2-0.1,1.4-0.7c1-2.8,1.5-5.7,1.5-8.7C64.5,22.6,52.5,10.7,37.9,10.7z" id="el_yt2mLwdCn0"/>
	<path d="M63.9,11.3c0,0-0.1-0.1-0.2-0.1C49.4-3.1,26.3-3.1,12,11.2c-0.1,0.1-0.2,0.2-0.3,0.3&#10;&#9;&#9;c-14.2,14.3-14.2,37.4,0,51.8c0,0.1,0.1,0.1,0.1,0.2c0,0,0.1,0.1,0.2,0.1c9.4,9.3,23.2,12.9,36,9.3c0.6-0.2,0.9-0.8,0.7-1.3&#10;&#9;&#9;c-0.2-0.6-0.7-0.9-1.3-0.7c-2.7,0.8-5.6,1.2-8.4,1.3v-2.6c0-0.6-0.5-1.1-1.1-1.1s-1.1,0.5-1.1,1.1V72c-8.5-0.3-16.5-3.6-22.7-9.4&#10;&#9;&#9;l1.8-1.8c0.4-0.4,0.4-1.1,0-1.5c-0.4-0.4-1.1-0.4-1.5,0l-1.8,1.8C6.8,55,3.5,46.9,3.2,38.4h2.6c0.6,0,1.1-0.5,1.1-1.1&#10;&#9;&#9;s-0.5-1.1-1.1-1.1H3.2c0.3-8.5,3.6-16.5,9.4-22.7l1.8,1.8c0.4,0.4,1.1,0.4,1.5,0s0.4-1.1,0-1.5L14.1,12c6.1-5.8,14.2-9.1,22.7-9.4&#10;&#9;&#9;v2.6c0,0.6,0.5,1.1,1.1,1.1S39,5.8,39,5.2V2.7c8.5,0.3,16.5,3.6,22.7,9.4l-1.8,1.8c-0.4,0.4-0.4,1.1,0,1.5s1.1,0.4,1.5,0l1.8-1.8&#10;&#9;&#9;c5.8,6.1,9.1,14.2,9.4,22.7H70c-0.6,0-1.1,0.5-1.1,1.1s0.5,1.1,1.1,1.1h2.6c-0.1,3.6-0.8,7.2-2,10.6c-0.2,0.6,0.1,1.2,0.6,1.4&#10;&#9;&#9;s1.2-0.1,1.4-0.6C77.3,36.4,74,21.5,63.9,11.3L63.9,11.3z" id="el_ZBUe9SXtiY"/>
	
	
	<g id="el_VkNKEJDUON_an_rR1_rJgVJ" data-animator-group="true" data-animator-type="1"><path d="M24.5,44.3L37,51.5c0.3,0.2,0.7,0.2,1,0l12.5-7.2c0.3-0.2,0.5-0.5,0.5-0.8V28.9c0-0.3-0.2-0.7-0.5-0.8L38,20.8&#10;&#9;&#9;c-0.3-0.2-0.7-0.2-1,0L24.4,28c-0.3,0.2-0.5,0.5-0.5,0.8v14.5C24,43.8,24.2,44.1,24.5,44.3z M25.9,30.6l10.6,6.1V49l-10.6-6.1V30.6&#10;&#9;&#9;z M43.7,26.4l4.4,2.6l-10.6,6.1l-4.4-2.6l-2-1.1L26.9,29l10.6-6.1l4.2,2.4L43.7,26.4z M38.5,49V36.7l10.6-6.1v12.2L38.5,49z" id="el_VkNKEJDUON"/></g>
</g>
<path d="M67.4,45.9c-5.2-1.9-10.9-1.3-15.5,1.7c-4.6,2.9-7.6,7.9-8.1,13.4c0,0.5-0.1,1-0.1,1.5c0,5.5,2.6,10.7,7,14&#10;&#9;c3.1,2.3,6.8,3.6,10.7,3.6c8.5,0,15.8-6.1,17.3-14.5C80.2,57.1,75.5,48.8,67.4,45.9z M61.3,77.9c-4.1,0-8-1.6-10.9-4.5&#10;&#9;c-2.9-2.9-4.5-6.8-4.5-10.9c0-0.4,0-0.9,0.1-1.3c0.7-8.3,8-14.6,16.3-14.1S77.1,54.6,76.9,63S69.7,77.9,61.3,77.9z" id="el_Oxs8_xbpgv"/>
<g id="el_np8QBCstYF_an_q_5wroS96" data-animator-group="true" data-animator-type="1"><path d="M55.2,66.3l-1,1.3c-0.1,0.1-0.1,0.3,0,0.4l1.8,1.8c0.1,0.1,0.3,0.1,0.4,0l1.3-1c0.6,0.4,1.3,0.7,2,0.8l0.2,1.6&#10;&#9;c0,0.2,0.1,0.3,0.3,0.3h2.5c0.2,0,0.3-0.1,0.3-0.3l0.2-1.6c0.7-0.2,1.4-0.5,2-0.8l1.3,1c0.1,0.1,0.3,0.1,0.4,0l1.8-1.8&#10;&#9;c0.1-0.1,0.1-0.3,0-0.4l-1-1.3c0.4-0.6,0.7-1.3,0.8-2l1.6-0.2c0.2,0,0.3-0.1,0.3-0.3v-2.5c0-0.2-0.1-0.3-0.3-0.3l-1.6-0.2&#10;&#9;c-0.2-0.7-0.5-1.4-0.8-2l1-1.3c0.1-0.1,0.1-0.3,0-0.4L67,55.3c-0.1-0.1-0.3-0.1-0.4,0l-1.3,1c-0.6-0.4-1.3-0.7-2-0.8L62.9,54&#10;&#9;c0-0.2-0.1-0.3-0.3-0.3h-2.5c-0.2,0-0.3,0.1-0.3,0.3l-0.2,1.6c-0.7,0.2-1.4,0.5-2,0.8l-1.3-1c-0.1-0.1-0.3-0.1-0.4,0l-1.8,1.8&#10;&#9;c-0.1,0.1-0.1,0.3,0,0.4l1,1.3c-0.4,0.6-0.7,1.3-0.8,2l-1.6,0.2c-0.2,0-0.3,0.1-0.3,0.3v2.5c0,0.2,0.1,0.3,0.3,0.3l1.6,0.2&#10;&#9;C54.6,65,54.8,65.7,55.2,66.3z M53.1,61.7l1.6-0.2c0.1,0,0.2-0.1,0.3-0.2c0.2-0.8,0.5-1.5,0.9-2.2c0.1-0.1,0.1-0.3,0-0.4l-1-1.2&#10;&#9;l1.4-1.4l1.2,1c0.1,0.1,0.3,0.1,0.4,0c0.7-0.4,1.4-0.8,2.2-0.9c0.1,0,0.2-0.1,0.2-0.3l0.2-1.6h2l0.2,1.6c0,0.1,0.1,0.2,0.2,0.3&#10;&#9;c0.8,0.2,1.5,0.5,2.2,0.9c0.1,0.1,0.3,0.1,0.4,0l1.2-1l1.4,1.4l-1,1.2c-0.1,0.1-0.1,0.3,0,0.4c0.4,0.7,0.8,1.4,0.9,2.2&#10;&#9;c0,0.1,0.1,0.2,0.3,0.2l1.6,0.2v2L68,63.8c-0.1,0-0.2,0.1-0.3,0.2c-0.2,0.8-0.5,1.5-0.9,2.2c-0.1,0.1-0.1,0.3,0,0.4l1,1.2l-1.4,1.4&#10;&#9;l-1.2-1c-0.1-0.1-0.3-0.1-0.4,0c-0.7,0.4-1.4,0.8-2.2,0.9c-0.1,0-0.2,0.1-0.2,0.3L62.2,71h-2L60,69.4c0-0.1-0.1-0.2-0.2-0.3&#10;&#9;c-0.8-0.2-1.5-0.5-2.2-0.9c-0.1-0.1-0.3-0.1-0.4,0l-1.2,1l-1.4-1.4l1-1.2c0.1-0.1,0.1-0.3,0-0.4c-0.4-0.7-0.8-1.4-0.9-2.2&#10;&#9;c0-0.1-0.1-0.2-0.3-0.2l-1.6-0.2v-1.9H53.1z" id="el_np8QBCstYF"/></g>
<path d="M61.3,67.8c2.9,0,5.2-2.3,5.2-5.2c0-2.9-2.3-5.2-5.2-5.2c-2.9,0-5.2,2.3-5.2,5.2C56.1,65.5,58.5,67.8,61.3,67.8&#10;&#9;z M61.3,58c2.5,0,4.6,2.1,4.6,4.6s-2.1,4.6-4.6,4.6s-4.6-2.1-4.6-4.6C56.8,60.1,58.8,58,61.3,58L61.3,58z" id="el_JKjKtmX2ub"/>
<path d="M57.3,61.1l0.6,0.4c-0.1,0.3-0.1,0.6-0.2,0.9L57,62.6c-0.1,0-0.2,0.2-0.2,0.3l0.3,1.2c0,0.1,0.2,0.2,0.3,0.2&#10;&#9;l0.7-0.1c0.1,0.3,0.3,0.5,0.5,0.8l-0.3,0.6c-0.1,0.1,0,0.3,0.1,0.4l1,0.7c0.1,0.1,0.3,0,0.4-0.1l0.4-0.6c0.3,0.1,0.6,0.1,0.9,0.2&#10;&#9;l0.2,0.7c0,0.1,0.2,0.2,0.3,0.2l1.2-0.3c0.1,0,0.2-0.2,0.2-0.3l0-0.6c0.3-0.1,0.5-0.3,0.8-0.5l0.6,0.3c0.1,0.1,0.3,0,0.4-0.1l0.7-1&#10;&#9;c0.1-0.1,0.1-0.3-0.1-0.4l-0.6-0.4c0.1-0.3,0.1-0.6,0.2-0.9l0.7-0.2c0.1,0,0.2-0.2,0.2-0.3l-0.2-1.2c0-0.1-0.2-0.2-0.3-0.2l-0.7,0.1&#10;&#9;c-0.1-0.3-0.3-0.5-0.5-0.8l0.3-0.6c0.1-0.1,0-0.3-0.1-0.4l-1-0.7c-0.1-0.1-0.3-0.1-0.4,0.1l-0.4,0.6c-0.4-0.3-0.7-0.3-1-0.3&#10;&#9;l-0.2-0.7c0-0.1-0.2-0.2-0.3-0.2l-1.2,0.3c-0.1,0-0.2,0.2-0.2,0.3l0.1,0.7c-0.3,0.1-0.5,0.3-0.8,0.5l-0.6-0.3&#10;&#9;c-0.1-0.1-0.3,0-0.4,0.1l-0.7,1C57.2,60.8,57.2,61,57.3,61.1z M58.3,60.2l0.6,0.3c0.1,0.1,0.2,0,0.3-0.1c0.3-0.3,0.6-0.5,0.9-0.6&#10;&#9;c0.1-0.1,0.2-0.2,0.2-0.3l-0.1-0.7l0.7-0.2l0.2,0.6c0,0.1,0.2,0.2,0.3,0.2c0.4,0,0.7,0.1,1.1,0.2c0.1,0,0.2,0,0.3-0.1l0.4-0.5&#10;&#9;l0.6,0.4L63.5,60c-0.1,0.1,0,0.2,0.1,0.3c0.3,0.3,0.5,0.6,0.6,0.9c0.1,0.1,0.2,0.2,0.3,0.2l0.7-0.1l0.1,0.7l-0.6,0.2&#10;&#9;c-0.1,0-0.2,0.2-0.2,0.3c0,0.4-0.1,0.7-0.2,1.1c0,0.1,0,0.2,0.1,0.3l0.5,0.4L64.4,65l-0.6-0.3c-0.1-0.1-0.2,0-0.3,0.1&#10;&#9;c-0.3,0.3-0.6,0.5-0.9,0.6c-0.1,0.1-0.2,0.2-0.2,0.3l0.1,0.7l-0.7,0.2L61.6,66c0-0.1-0.2-0.2-0.3-0.2c-0.4,0-0.7-0.1-1.1-0.2&#10;&#9;c-0.1,0-0.3,0-0.3,0.1l-0.4,0.5l-0.6-0.4l0.3-0.6c0.1-0.1,0-0.2,0-0.3c-0.3-0.3-0.5-0.6-0.6-0.9c-0.1-0.1-0.2-0.2-0.3-0.2l-0.7,0.1&#10;&#9;l-0.1-0.7l0.6-0.2c0.1,0,0.2-0.2,0.2-0.3c0-0.4,0.1-0.7,0.2-1.1c0-0.1,0-0.2-0.1-0.3l-0.5-0.4L58.3,60.2z" id="el_z8EJFyvUzS"/>
<g id="el_dyQuEDdzDu_an_pb-gMUfkC" data-animator-group="true" data-animator-type="1"><path d="M61.3,64.7c1.1,0,2-0.9,2-2s-0.9-2-2-2s-2,0.9-2,2l0,0C59.3,63.7,60.2,64.6,61.3,64.7z M61.3,61.2&#10;&#9;c0.8,0,1.5,0.7,1.5,1.5s-0.7,1.5-1.5,1.5s-1.5-0.7-1.5-1.5l0,0C59.9,61.8,60.5,61.2,61.3,61.2z" id="el_dyQuEDdzDu"/></g>
<g id="el_yeWA44ZK3T_an_0BaTEVQKI" data-animator-group="true" data-animator-type="1"><path d="M51,68.7l-1.8,2.1c-0.2,0.2-0.2,0.5,0,0.7l3,3c0.2,0.2,0.5,0.2,0.7,0l2.1-1.8c1,0.6,2.2,1.1,3.4,1.4l0.3,2.8&#10;&#9;c0,0.3,0.3,0.5,0.5,0.4h4.3c0.3,0,0.5-0.2,0.5-0.4l0.3-2.8c1.2-0.3,2.3-0.8,3.4-1.4l2.1,1.8c0.2,0.2,0.5,0.2,0.7,0l3-3&#10;&#9;c0.2-0.2,0.2-0.5,0-0.7l-1.8-2.1c0.6-1,1.1-2.2,1.4-3.4l2.7-0.3c0.3,0,0.5-0.2,0.5-0.5v-4.3c0-0.3-0.2-0.5-0.5-0.5L73,59.4&#10;&#9;c-0.3-1.2-0.8-2.3-1.4-3.4l1.8-2.1c0.2-0.2,0.2-0.5,0-0.7l-3-3c-0.2-0.2-0.5-0.2-0.7,0L67.6,52c-1-0.6-2.2-1.1-3.4-1.4L64,47.9&#10;&#9;c0-0.3-0.3-0.5-0.5-0.5h-4.3c-0.3,0-0.5,0.2-0.5,0.5l-0.3,2.8c-1.2,0.3-2.3,0.8-3.4,1.4l-2.1-1.8c-0.2-0.2-0.5-0.2-0.7,0l-3,3&#10;&#9;c-0.2,0.2-0.2,0.5,0,0.7l1.8,2.1c-0.6,1-1.1,2.2-1.4,3.4l-2.8,0.3c-0.3,0-0.5,0.3-0.4,0.5v4.3c0,0.3,0.2,0.5,0.4,0.5l2.8,0.3&#10;&#9;C49.9,66.5,50.3,67.7,51,68.7z M47.4,60.8l2.7-0.3c0.2,0,0.4-0.2,0.4-0.4c0.3-1.3,0.8-2.6,1.6-3.7c0.1-0.2,0.1-0.4,0-0.6l-1.7-2.1&#10;&#9;l2.3-2.3l2.1,1.7c0.2,0.1,0.4,0.2,0.6,0c1.1-0.7,2.4-1.3,3.7-1.6c0.2,0,0.4-0.2,0.4-0.4l0.3-2.7H63l0.3,2.7c0,0.2,0.2,0.4,0.4,0.4&#10;&#9;c1.3,0.3,2.6,0.8,3.7,1.6c0.2,0.1,0.4,0.1,0.6,0l2.1-1.7l2.3,2.3l-1.7,2.1c-0.1,0.2-0.2,0.4,0,0.6c0.7,1.1,1.3,2.4,1.6,3.7&#10;&#9;c0,0.2,0.2,0.4,0.5,0.4l2.7,0.3v3.3l-2.7,0.3c-0.2,0-0.4,0.2-0.5,0.4c-0.3,1.3-0.8,2.6-1.6,3.7c-0.1,0.2-0.1,0.4,0,0.6l1.7,2.1&#10;&#9;L70,73.5l-2-1.7c-0.2-0.1-0.4-0.2-0.6,0c-1.1,0.7-2.4,1.3-3.7,1.6c-0.2,0-0.4,0.2-0.4,0.4L63,76.4h-3.3l-0.3-2.7&#10;&#9;c0-0.2-0.2-0.4-0.4-0.4c-1.3-0.3-2.6-0.8-3.7-1.6c-0.2-0.1-0.4-0.1-0.6,0l-2.1,1.7l-2.3-2.3L52,69c0.1-0.2,0.2-0.4,0-0.6&#10;&#9;c-0.7-1.1-1.3-2.4-1.6-3.7c0-0.2-0.2-0.4-0.4-0.4L47.3,64L47.4,60.8L47.4,60.8z" id="el_yeWA44ZK3T"/></g>
</svg>