<svg version="1.1" id="el_DqJM3nzTf" xmlns="http://www.w3.org/2000/svg" xmlns:xlink="http://www.w3.org/1999/xlink" x="0px" y="0px" viewBox="0 0 647 549" style="enable-background:new 0 0 647.8 549.2;" xml:space="preserve"><style>@-webkit-keyframes kf_el_W-91BIpJS4b_an_yktJTP24_{0%{-webkit-transform: translate(304.4500045776367px, 343.8999876976013px) translate(-304.4500045776367px, -343.8999876976013px) translate(0px, 0px);transform: translate(304.4500045776367px, 343.8999876976013px) translate(-304.4500045776367px, -343.8999876976013px) translate(0px, 0px);}33.33%{-webkit-transform: translate(304.4500045776367px, 343.8999876976013px) translate(-304.4500045776367px, -343.8999876976013px) translate(0px, 100px);transform: translate(304.4500045776367px, 343.8999876976013px) translate(-304.4500045776367px, -343.8999876976013px) translate(0px, 100px);}66.67%{-webkit-transform: translate(304.4500045776367px, 343.8999876976013px) translate(-304.4500045776367px, -343.8999876976013px) translate(0px, -250px);transform: translate(304.4500045776367px, 343.8999876976013px) translate(-304.4500045776367px, -343.8999876976013px) translate(0px, -250px);}100%{-webkit-transform: translate(304.4500045776367px, 343.8999876976013px) translate(-304.4500045776367px, -343.8999876976013px) translate(0px, 0px);transform: translate(304.4500045776367px, 343.8999876976013px) translate(-304.4500045776367px, -343.8999876976013px) translate(0px, 0px);}}@keyframes kf_el_W-91BIpJS4b_an_yktJTP24_{0%{-webkit-transform: translate(304.4500045776367px, 343.8999876976013px) translate(-304.4500045776367px, -343.8999876976013px) translate(0px, 0px);transform: translate(304.4500045776367px, 343.8999876976013px) translate(-304.4500045776367px, -343.8999876976013px) translate(0px, 0px);}33.33%{-webkit-transform: translate(304.4500045776367px, 343.8999876976013px) translate(-304.4500045776367px, -343.8999876976013px) translate(0px, 100px);transform: translate(304.4500045776367px, 343.8999876976013px) translate(-304.4500045776367px, -343.8999876976013px) translate(0px, 100px);}66.67%{-webkit-transform: translate(304.4500045776367px, 343.8999876976013px) translate(-304.4500045776367px, -343.8999876976013px) translate(0px, -250px);transform: translate(304.4500045776367px, 343.8999876976013px) translate(-304.4500045776367px, -343.8999876976013px) translate(0px, -250px);}100%{-webkit-transform: translate(304.4500045776367px, 343.8999876976013px) translate(-304.4500045776367px, -343.8999876976013px) translate(0px, 0px);transform: translate(304.4500045776367px, 343.8999876976013px) translate(-304.4500045776367px, -343.8999876976013px) translate(0px, 0px);}}#el_DqJM3nzTf *{-webkit-animation-duration: 3s;animation-duration: 3s;-webkit-animation-iteration-count: infinite;animation-iteration-count: infinite;-webkit-animation-timing-function: cubic-bezier(0, 0, 1, 1);animation-timing-function: cubic-bezier(0, 0, 1, 1);}#el_0mclXbUbyc{fill: none;stroke: #576bff;stroke-miterlimit: 10;stroke-width: 2;}#el_h_5cB5goBr{fill: none;stroke: #576bff;stroke-miterlimit: 10;stroke-dasharray: 5.9133,5.9133; stroke-width: 2; }#el_lFXOoeCLTn{fill: none;stroke: #576bff;stroke-miterlimit: 10; stroke-width: 2;}#el_y580CFnXNN{fill: none;stroke: #576bff;stroke-miterlimit: 10;stroke-dasharray: 6.3603,6.3603; stroke-width: 2; }#el_ZVUYqBMK2H{fill: none;stroke: #576bff;stroke-miterlimit: 10; stroke-width: 2;}#el_adt4dPEjRQ{fill: none;stroke: #576bff;stroke-miterlimit: 10;stroke-dasharray: 6.0421,6.0421; stroke-width: 2;}#el_iH8oGJf8Dh{fill: #576bff;  }#el_l2_2Kxjm7u{fill: #576bff;}#el_C1LaV8PYrm{fill: #576bff;}#el_luZeic_Fjy1{fill: none;stroke: #576bff;stroke-width: 6;stroke-linecap: square;stroke-linejoin: bevel;stroke-miterlimit: 10;}#el_4VOkbvHEuhz{fill: none;stroke: #576bff;stroke-width: 6;stroke-linecap: square;stroke-linejoin: bevel;stroke-miterlimit: 10;}#el_GGaXLznX3bZ{fill: none;stroke: #576bff;stroke-width: 6;stroke-linecap: square;stroke-linejoin: bevel;stroke-miterlimit: 10;}#el_RPULEcJTP7A{fill: none;stroke: #576bff;stroke-width: 6;stroke-linecap: square;stroke-linejoin: bevel;stroke-miterlimit: 10;}#el_OusY12cOp3u{fill: none;stroke: #0AEA75;stroke-width: 12;stroke-miterlimit: 10;}#el_g8S5nIOy7UG{fill: none;stroke: #0AEA75;stroke-width: 12;stroke-miterlimit: 10;}#el_837ekTgUm_R{fill: none;stroke: #0AEA75;stroke-width: 12;stroke-miterlimit: 10;}#el_f8L1V50UF9u{fill: none;stroke: #0AEA75;stroke-width: 12;stroke-miterlimit: 10;}#el_W-91BIpJS4b{fill: #0AEA75;stroke-linejoin: round;}#el_W-91BIpJS4b_an_yktJTP24_{-webkit-animation-fill-mode: backwards;animation-fill-mode: backwards;-webkit-transform: translate(304.4500045776367px, 343.8999876976013px) translate(-304.4500045776367px, -343.8999876976013px) translate(0px, 0px);transform: translate(304.4500045776367px, 343.8999876976013px) translate(-304.4500045776367px, -343.8999876976013px) translate(0px, 0px);-webkit-animation-name: kf_el_W-91BIpJS4b_an_yktJTP24_;animation-name: kf_el_W-91BIpJS4b_an_yktJTP24_;-webkit-animation-timing-function: cubic-bezier(0, 0, 1, 1);animation-timing-function: cubic-bezier(0, 0, 1, 1);}</style>

<g id="el_QFltANxCPW">
	<g id="el_4FXGAVpzKC">
		<g id="el_fvVvtOMhee">
			<g id="el_IYXstqjCLS">
				<path d="M473.7,343.5l3,0c-0.4,0.9-0.8,1.8-1.2,2.8" id="el_0mclXbUbyc"/>
				<path d="M473,351.6c-28.7,59.9-87.6,93.8-158.2,93.8H181" id="el_h_5cB5goBr"/>
				<polyline points="178.1,445.4 175.1,445.4 175.1,442.4 &#9;&#9;&#9;&#9;" id="el_lFXOoeCLTn"/>
				<line x1="175.1" y1="436" x2="175.6" y2="350.1" id="el_y580CFnXNN"/>
				<polyline points="175.6,347 175.6,344 178.6,344 &#9;&#9;&#9;&#9;" id="el_ZVUYqBMK2H"/>
				<path d="M184.7,344l49.5,0c12.9,12.6,34.1,26.2,65.3,26.2c25.9,0,54.1-8.9,73.3-26.2l97.8-0.5" id="el_adt4dPEjRQ"/>
			</g>
		</g>
	</g>
	<g id="el_TzpRRA36ar">
		<path d="M376.9,340.1c-0.6,0.6-1.2,1.2-1.8,1.8h102.2c8.6-21.3,13.7-45.5,14.5-72.4c0.7-22.5-1.7-40.4-14-68.3&#10;&#9;&#9;&#9;c-0.3-0.5-1.3,49.8-29.8,85.8C415.4,328,376.9,340.1,376.9,340.1z" id="el_iH8oGJf8Dh"/>
		<polygon points="248.7,175.9 248.7,91.2 175.2,91.2 175.2,175.9 &#9;&#9;" id="el_l2_2Kxjm7u"/>
		<path d="M406.3,268.3c0,17-4.2,33.6-12.3,48.4c0,0,33.6-17.2,55.7-56.8c24.2-44.1,17.2-83.4,17.2-83.4&#10;&#9;&#9;&#9;c-31.3-50-88.3-85.3-151.9-85.3l-28.1,75.7l16.7-1.5C360.9,165.3,406.3,214.1,406.3,268.3z" id="el_C1LaV8PYrm"/>
	</g>
	<g id="el_LYF1jmHO7v">
		<polyline points="514.5,107.6 514.5,63 468.4,63 &#9;&#9;" id="el_luZeic_Fjy1"/>
		<polyline points="137.4,63 91.3,63 91.3,107.6 &#9;&#9;" id="el_4VOkbvHEuhz"/>
		<polyline points="468.4,486.2 514.5,486.2 514.5,438.6 &#9;&#9;" id="el_GGaXLznX3bZ"/>
		<polyline points="91.3,438.6 91.3,486.2 137.4,486.2 &#9;&#9;" id="el_RPULEcJTP7A"/>
	</g>
	<g id="el_ZBt2I-3QcaF">
		<polyline points="534.2,92.1 534.2,43.4 483.8,43.4 &#9;&#9;" id="el_OusY12cOp3u"/>
		<polyline points="122,43.4 71.6,43.4 71.6,92.1 &#9;&#9;" id="el_g8S5nIOy7UG"/>
		<polyline points="483.8,505.9 534.2,505.9 534.2,453.8 &#9;&#9;" id="el_837ekTgUm_R"/>
		<polyline points="71.6,453.8 71.6,505.9 122,505.9 &#9;&#9;" id="el_f8L1V50UF9u"/>
	</g>
	<g id="el_W-91BIpJS4b_an_yktJTP24_" data-animator-group="true" data-animator-type="0"><rect x="66.6" y="341.8" width="475.7" height="4.2" id="el_W-91BIpJS4b"/></g>
</g>
</svg>