<svg version="1.1" id="el_5UagGz-8W" xmlns="http://www.w3.org/2000/svg" xmlns:xlink="http://www.w3.org/1999/xlink" x="0px" y="0px" viewBox="0 0 80 80" style="enable-background:new 0 0 80 80;" xml:space="preserve"><style>@-webkit-keyframes kf_el_ZNKqdmxOmz_an_3bEfmR87A{0%{opacity: 1;}33.33%{opacity: 0;}83.33%{opacity: 1;}100%{opacity: 1;}}@keyframes kf_el_ZNKqdmxOmz_an_3bEfmR87A{0%{opacity: 1;}33.33%{opacity: 0;}83.33%{opacity: 1;}100%{opacity: 1;}}@-webkit-keyframes kf_el_8L5k-Xuml6_an_b4gocsU20{0%{-webkit-transform: translate(60.14999771118164px, 65.0999984741211px) rotate(0deg) translate(-60.14999771118164px, -65.0999984741211px);transform: translate(60.14999771118164px, 65.0999984741211px) rotate(0deg) translate(-60.14999771118164px, -65.0999984741211px);}16.67%{-webkit-transform: translate(60.14999771118164px, 65.0999984741211px) rotate(90deg) translate(-60.14999771118164px, -65.0999984741211px);transform: translate(60.14999771118164px, 65.0999984741211px) rotate(90deg) translate(-60.14999771118164px, -65.0999984741211px);}33.33%{-webkit-transform: translate(60.14999771118164px, 65.0999984741211px) rotate(180deg) translate(-60.14999771118164px, -65.0999984741211px);transform: translate(60.14999771118164px, 65.0999984741211px) rotate(180deg) translate(-60.14999771118164px, -65.0999984741211px);}50%{-webkit-transform: translate(60.14999771118164px, 65.0999984741211px) rotate(360deg) translate(-60.14999771118164px, -65.0999984741211px);transform: translate(60.14999771118164px, 65.0999984741211px) rotate(360deg) translate(-60.14999771118164px, -65.0999984741211px);}66.67%{-webkit-transform: translate(60.14999771118164px, 65.0999984741211px) rotate(450deg) translate(-60.14999771118164px, -65.0999984741211px);transform: translate(60.14999771118164px, 65.0999984741211px) rotate(450deg) translate(-60.14999771118164px, -65.0999984741211px);}83.33%{-webkit-transform: translate(60.14999771118164px, 65.0999984741211px) rotate(540deg) translate(-60.14999771118164px, -65.0999984741211px);transform: translate(60.14999771118164px, 65.0999984741211px) rotate(540deg) translate(-60.14999771118164px, -65.0999984741211px);}100%{-webkit-transform: translate(60.14999771118164px, 65.0999984741211px) rotate(720deg) translate(-60.14999771118164px, -65.0999984741211px);transform: translate(60.14999771118164px, 65.0999984741211px) rotate(720deg) translate(-60.14999771118164px, -65.0999984741211px);}}@keyframes kf_el_8L5k-Xuml6_an_b4gocsU20{0%{-webkit-transform: translate(60.14999771118164px, 65.0999984741211px) rotate(0deg) translate(-60.14999771118164px, -65.0999984741211px);transform: translate(60.14999771118164px, 65.0999984741211px) rotate(0deg) translate(-60.14999771118164px, -65.0999984741211px);}16.67%{-webkit-transform: translate(60.14999771118164px, 65.0999984741211px) rotate(90deg) translate(-60.14999771118164px, -65.0999984741211px);transform: translate(60.14999771118164px, 65.0999984741211px) rotate(90deg) translate(-60.14999771118164px, -65.0999984741211px);}33.33%{-webkit-transform: translate(60.14999771118164px, 65.0999984741211px) rotate(180deg) translate(-60.14999771118164px, -65.0999984741211px);transform: translate(60.14999771118164px, 65.0999984741211px) rotate(180deg) translate(-60.14999771118164px, -65.0999984741211px);}50%{-webkit-transform: translate(60.14999771118164px, 65.0999984741211px) rotate(360deg) translate(-60.14999771118164px, -65.0999984741211px);transform: translate(60.14999771118164px, 65.0999984741211px) rotate(360deg) translate(-60.14999771118164px, -65.0999984741211px);}66.67%{-webkit-transform: translate(60.14999771118164px, 65.0999984741211px) rotate(450deg) translate(-60.14999771118164px, -65.0999984741211px);transform: translate(60.14999771118164px, 65.0999984741211px) rotate(450deg) translate(-60.14999771118164px, -65.0999984741211px);}83.33%{-webkit-transform: translate(60.14999771118164px, 65.0999984741211px) rotate(540deg) translate(-60.14999771118164px, -65.0999984741211px);transform: translate(60.14999771118164px, 65.0999984741211px) rotate(540deg) translate(-60.14999771118164px, -65.0999984741211px);}100%{-webkit-transform: translate(60.14999771118164px, 65.0999984741211px) rotate(720deg) translate(-60.14999771118164px, -65.0999984741211px);transform: translate(60.14999771118164px, 65.0999984741211px) rotate(720deg) translate(-60.14999771118164px, -65.0999984741211px);}}#el_5UagGz-8W *{-webkit-animation-duration: 3s;animation-duration: 3s;-webkit-animation-iteration-count: infinite;animation-iteration-count: infinite;-webkit-animation-timing-function: cubic-bezier(0, 0, 1, 1);animation-timing-function: cubic-bezier(0, 0, 1, 1);}#el_N4EoVDw7qH{fill: #D4E1F4;}#el_zSAIVIirg3{fill: #576bff;}#el_ZNKqdmxOmz{fill: #576bff;-webkit-animation-fill-mode: backwards;animation-fill-mode: backwards;opacity: 1;-webkit-animation-name: kf_el_ZNKqdmxOmz_an_3bEfmR87A;animation-name: kf_el_ZNKqdmxOmz_an_3bEfmR87A;-webkit-animation-timing-function: cubic-bezier(0, 0, 1, 1);animation-timing-function: cubic-bezier(0, 0, 1, 1);}#el_qwYtlErdr9{fill: #1AE5BE;}#el_yKUgoaLH6M{fill: #1AE5BE;}#el_c5edzhi7M9{fill: #1AE5BE;}#el_99Rwt6wXEw{fill: #1AE5BE;}#el_8L5k-Xuml6_an_b4gocsU20{-webkit-animation-fill-mode: backwards;animation-fill-mode: backwards;-webkit-transform: translate(60.14999771118164px, 65.0999984741211px) rotate(0deg) translate(-60.14999771118164px, -65.0999984741211px);transform: translate(60.14999771118164px, 65.0999984741211px) rotate(0deg) translate(-60.14999771118164px, -65.0999984741211px);-webkit-animation-name: kf_el_8L5k-Xuml6_an_b4gocsU20;animation-name: kf_el_8L5k-Xuml6_an_b4gocsU20;-webkit-animation-timing-function: cubic-bezier(0, 0, 1, 1);animation-timing-function: cubic-bezier(0, 0, 1, 1);}</style>


<g id="el_91c7gOop2p">
	<path d="M13.7,55.2C11,50.1,9.6,44.4,9.6,38.3v-18c9.7-4.8,18.9-10.9,27.3-18.1c8.5,7.2,17.6,13.3,27.3,18.1v18.1&#10;&#9;&#9;c0,4.1-0.7,8.3-2.1,12.1c-0.2,0.5,0,1.1,0.5,1.3c0.4,0.2,0.9,0,1.1-0.5c1.5-4.1,2.2-8.4,2.2-12.8V19.6c0-0.4-0.2-0.7-0.5-0.9&#10;&#9;&#9;l-0.2-0.1C55.4,13.8,46,7.6,37.4,0.2c-0.3-0.3-0.7-0.3-1,0C27.8,7.6,18.5,13.8,8.6,18.6l-0.2,0.1c-0.3,0.2-0.5,0.5-0.5,0.9v18.7&#10;&#9;&#9;c0,6.5,1.5,12.6,4.5,18.1c2.4,4.3,5.6,8.3,9.7,11.7c7,5.8,13.8,8.2,14.1,8.3c0.2,0.1,0.3,0.1,0.5,0s5.7-1.9,11.9-6.2&#10;&#9;&#9;c0.3-0.2,0.4-0.5,0.4-0.9c0-0.3-0.2-0.7-0.4-0.8c-0.3-0.2-0.6-0.2-0.9,0c-3.5,2.5-7.3,4.5-11.2,5.9c-1.3-0.5-7.4-2.9-13.4-7.9&#10;&#9;&#9;c-3.3-2.8-6.1-5.9-8.2-9.3L13.7,55.2z" id="el_zSAIVIirg3"/>
	<path id="el_ZNKqdmxOmz" d="M43.3,47.2c0.7-1.2,1-2.6,1-4.1c0-4.5-3.8-8.6-8.6-8.6l-1.4,0.1l2.4-6.4c5.3,0,10.1,3,12.7,7.2&#10;&#9;&#9;c0,0,0.6,3.3-1.4,7C46.2,45.7,43.3,47.2,43.3,47.2z M25,28.2h6.2v7.1H25V28.2z M50.4,37.5c1,2.3,1.2,3.8,1.2,5.7&#10;&#9;&#9;C51.3,52.5,44.9,58,36.7,58H25V47.7h3.5c0,0,1.9,4,6.8,4c2.3,0,4.9-0.9,6.5-2.5c0,0,3.2-1,6-4.5C50.2,41.6,50.3,37.4,50.4,37.5z"/>
</g>
<path d="M63.6,62.7h-0.3v-2.3c0-1.4-1.1-2.5-2.5-2.5s-2.5,1.1-2.5,2.5v2.3H58c-0.8,0-1.5,0.7-1.5,1.5v5.1&#10;&#9;c0,0.8,0.7,1.5,1.5,1.5h5.6c0.8,0,1.5-0.7,1.5-1.5v-5.1C65.1,63.4,64.5,62.7,63.6,62.7z M59.5,60.4c0-0.8,0.6-1.4,1.4-1.4&#10;&#9;s1.4,0.6,1.4,1.4v2.3h-2.8L59.5,60.4z M64,69.3c0,0.2-0.2,0.4-0.4,0.4H58c-0.2,0-0.4-0.2-0.4-0.4v-5.1c0-0.2,0.2-0.4,0.4-0.4h5.6&#10;&#9;c0.2,0,0.4,0.2,0.4,0.4V69.3z" id="el_qwYtlErdr9"/>
<path d="M60.9,67.1c-0.3,0-0.6,0.3-0.6,0.6v0.7c0,0.3,0.3,0.6,0.6,0.6s0.6-0.3,0.6-0.6v-0.7&#10;&#9;C61.4,67.3,61.2,67.1,60.9,67.1z" id="el_yKUgoaLH6M"/>
<g id="el_8L5k-Xuml6_an_b4gocsU20" data-animator-group="true" data-animator-type="1"><g id="el_8L5k-Xuml6">
	<g id="el_7mD2HJ0Cir">
		<path d="M60.6,77.1c-6.6,0-12-5.4-12-12s5.4-12,12-12c4.2,0,8.2,2.3,10.4,5.9c0.1,0.2,0.1,0.5-0.2,0.7&#10;&#9;&#9;&#9;c-0.2,0.1-0.5,0.1-0.7-0.2c-2-3.4-5.6-5.5-9.5-5.5c-6.1,0-11,4.9-11,11s4.9,11,11,11c3.6,0,6.9-1.7,9-4.7c0.2-0.2,0.5-0.3,0.7-0.1&#10;&#9;&#9;&#9;c0.2,0.2,0.3,0.5,0.1,0.7C68.2,75.2,64.5,77.1,60.6,77.1z" id="el_c5edzhi7M9"/>
	</g>
	<g id="el_2X42_UjAmV">
		<g id="el_4vfEiPxvPW">
			<path d="M71.5,61.2c-0.8-0.7-1.9-1.6-2.8-1.9l1.8-0.2l1.2-1.3C71.4,58.8,71.4,60.1,71.5,61.2z" id="el_99Rwt6wXEw"/>
		</g>
	</g>
</g></g>
</svg>