<?xml version="1.0" encoding="utf-8"?>
<!-- Generator: Adobe Illustrator 22.0.0, SVG Export Plug-In . SVG Version: 6.00 Build 0)  -->
<svg version="1.1" id="Layer_1" xmlns="http://www.w3.org/2000/svg" xmlns:xlink="http://www.w3.org/1999/xlink" x="0px" y="0px"
	 viewBox="0 0 933.9 318.7" style="enable-background:new 0 0 933.9 318.7;" xml:space="preserve">
<style type="text/css">
	.st0{fill:#576BFF;}
	.st1{fill:#0AEA75;}
</style>
<title>logo</title>
<g>
	<g id="path_1_">
		<g>
			<path class="st0" d="M271.6,201.4L269,200c0.1-0.2,0.2-0.5,0.4-0.7h-0.9v-3h3.2c0.5,0,1,0.2,1.2,0.7c0.3,0.4,0.3,0.9,0.2,1.4
				C272.6,199.4,272.1,200.4,271.6,201.4z"/>
		</g>
		<g>
			<path class="st0" d="M168.1,263.1h-6v-3h6V263.1z M156.1,263.1h-6v-3h6V263.1z M144.1,263.1h-6v-3h6V263.1z M132.1,263.1h-6v-3h6
				V263.1z M120.1,263.1h-6v-3h6V263.1z M108.1,263.1h-6v-3h6V263.1z M96.1,263.1h-6v-3h6V263.1z M174.1,263l-0.1-3
				c2-0.1,4-0.2,5.9-0.3l0.2,3C178.2,262.9,176.2,263,174.1,263z M186.2,262.2l-0.4-3c2-0.2,3.9-0.5,5.9-0.8l0.5,3
				C190.3,261.6,188.2,261.9,186.2,262.2z M198.2,260.1l-0.6-2.9c1.9-0.4,3.9-0.9,5.7-1.4l0.8,2.9
				C202.2,259.2,200.2,259.7,198.2,260.1z M209.9,256.9L209,254c1.9-0.6,3.7-1.3,5.6-2l1.1,2.8C213.7,255.5,211.8,256.3,209.9,256.9
				z M221.2,252.4l-1.3-2.7c1.8-0.8,3.6-1.7,5.3-2.6l1.4,2.6C224.9,250.6,223,251.6,221.2,252.4z M231.9,246.7l-1.6-2.6
				c1.7-1,3.3-2.1,4.9-3.2l1.7,2.5C235.4,244.5,233.6,245.6,231.9,246.7z M241.9,239.7l-1.9-2.4c1.5-1.2,3.1-2.5,4.5-3.8l2,2.2
				C245.1,237.1,243.5,238.5,241.9,239.7z M251,231.6l-2.1-2.1c1.4-1.4,2.7-2.8,4-4.3l2.3,2C253.8,228.7,252.4,230.2,251,231.6z
				 M259,222.4l-2.4-1.8c1.2-1.5,2.4-3.2,3.5-4.8l2.5,1.7C261.4,219.2,260.2,220.9,259,222.4z M265.9,212.4l-2.6-1.5
				c1-1.7,2-3.4,2.9-5.2l2.7,1.4C267.9,208.9,266.9,210.7,265.9,212.4z"/>
		</g>
		<g>
			<path class="st0" d="M86.1,263H83c-0.8,0-1.5-0.7-1.5-1.5v-3.1h3v1.6h1.6V263z"/>
		</g>
		<g>
			<path class="st0" d="M84.5,252l-3,0l0-6l3,0L84.5,252z M84.6,239.9l-3,0l0-6l3,0L84.6,239.9z M84.7,227.9l-3,0l0-6l3,0
				L84.7,227.9z M84.7,215.8l-3,0l0-6l3,0L84.7,215.8z"/>
		</g>
		<g>
			<path class="st0" d="M84.8,201.3h-3v-3.2c0-0.8,0.7-1.5,1.5-1.5h3.2v3h-1.7V201.3z"/>
		</g>
		<g>
			<path class="st0" d="M160.8,216c-0.9,0-1.8,0-2.6,0l0.1-3c1.8,0.1,3.8,0.1,5.7,0l0.1,3C163,216,161.9,216,160.8,216z
				 M152.2,215.4c-2-0.3-4-0.6-5.9-1.1l0.7-2.9c1.8,0.4,3.7,0.8,5.6,1L152.2,215.4z M170.1,215.4l-0.4-3c1.9-0.2,3.8-0.5,5.6-0.9
				l0.6,2.9C174,214.9,172,215.2,170.1,215.4z M181.7,213l-0.8-2.9c1.8-0.5,3.7-1.1,5.4-1.8l1,2.8
				C185.5,211.9,183.6,212.5,181.7,213z M140.6,212.7c-1.9-0.7-3.7-1.4-5.5-2.3l1.3-2.7c1.7,0.8,3.5,1.5,5.3,2.1L140.6,212.7z
				 M192.9,208.9l-1.3-2.7c1.7-0.8,3.4-1.7,5-2.6l1.5,2.6C196.4,207.1,194.7,208,192.9,208.9z M129.8,207.6c-1.7-1-3.4-2.1-5-3.3
				l1.8-2.4c1.5,1.1,3.1,2.2,4.7,3.2L129.8,207.6z M203.2,202.9l-1.8-2.4c1.5-1.1,3-2.3,4.3-3.5c0.3-0.2,0.6-0.4,1-0.4l0.2,0l0,1.7
				l0.8,0.9C206.3,200.5,204.7,201.7,203.2,202.9z M120.2,200.5c-0.3-0.3-0.6-0.6-0.9-0.9h-3.4v-3h4c0.4,0,0.8,0.2,1,0.4
				c0.4,0.4,0.9,0.8,1.3,1.2L120.2,200.5z M110.1,199.6h-5.8v-3h5.8V199.6z M98.4,199.6h-5.8v-3h5.8V199.6z M212.7,199.6l0-3l5.8,0
				l0,3L212.7,199.6z M224.4,199.5l0-3l5.8,0l0,3L224.4,199.5z M236,199.5l0-3l5.8,0l0,3L236,199.5z M247.7,199.4l0-3l5.8,0l0,3
				L247.7,199.4z M259.3,199.3l0-3l5.8,0l0,3L259.3,199.3z"/>
		</g>
	</g>
	<g>
		<path class="st0" d="M209.2,195.7c-0.4,0.4-0.8,0.7-1.1,1.1H272c5.4-13.3,8.6-28.5,9-45.3c0.4-14.1-1.1-25.2-8.7-42.7
			c-0.2-0.3-0.8,31.1-18.6,53.6C233.3,188.1,209.2,195.7,209.2,195.7z"/>
		<polygon class="st0" points="129,93 129,40 83.1,40 83.1,93 		"/>
		<path class="st0" d="M227.6,150.8c0,10.6-2.6,21-7.7,30.3c0,0,21-10.7,34.8-35.6c15.1-27.6,10.7-52.2,10.7-52.2
			c-19.6-31.2-55.2-53.3-95-53.3l-17.6,47.3l10.4-0.9C199.2,86.4,227.6,116.9,227.6,150.8z"/>
	</g>
	<g>
		<g>
			<polygon class="st0" points="296.7,51.8 293.7,51.8 293.7,23.9 264.9,23.9 264.9,20.9 295.2,20.9 296.7,22.4 			"/>
		</g>
		<g>
			<polygon class="st0" points="32,51.8 29,51.8 29,22.4 30.5,20.9 60.9,20.9 60.9,23.9 32,23.9 			"/>
		</g>
		<g>
			<polygon class="st0" points="295.2,288.6 264.9,288.6 264.9,285.6 293.7,285.6 293.7,255.8 296.7,255.8 296.7,287.1 			"/>
		</g>
		<g>
			<polygon class="st0" points="60.9,288.6 30.5,288.6 29,287.1 29,255.8 32,255.8 32,285.6 60.9,285.6 			"/>
		</g>
	</g>
	<g>
		<g>
			<polygon class="st1" points="311,40.6 304,40.6 304,13.6 276,13.6 276,6.6 311,6.6 			"/>
		</g>
		<g>
			<polygon class="st1" points="21.8,40.6 14.8,40.6 14.8,6.6 49.8,6.6 49.8,13.6 21.8,13.6 			"/>
		</g>
		<g>
			<polygon class="st1" points="311,302.9 276,302.9 276,295.9 304,295.9 304,266.8 311,266.8 			"/>
		</g>
		<g>
			<polygon class="st1" points="49.8,302.9 14.8,302.9 14.8,266.8 21.8,266.8 21.8,295.9 49.8,295.9 			"/>
		</g>
	</g>
	<rect x="15.1" y="196.8" class="st1" width="297.5" height="2.7"/>
	<path class="st1" d="M440.8,165.6c0,7.4-1.2,14.3-3.7,20.5s-6,11.6-10.5,16.1s-9.9,8-16.2,10.5s-13.3,3.7-21.1,3.7h-38.7V114.9
		h38.7c7.7,0,14.7,1.3,21.1,3.8c6.3,2.5,11.7,6,16.2,10.5c4.5,4.5,8,9.8,10.5,16C439.6,151.3,440.8,158.2,440.8,165.6z M421.4,165.6
		c0-5.6-0.7-10.6-2.2-15s-3.6-8.2-6.4-11.2c-2.8-3.1-6.2-5.4-10.1-7.1c-4-1.6-8.4-2.5-13.4-2.5h-19.7v71.5h19.7
		c5,0,9.4-0.8,13.4-2.5c4-1.6,7.3-4,10.1-7.1c2.8-3.1,4.9-6.8,6.4-11.2C420.7,176.2,421.4,171.2,421.4,165.6z"/>
	<path class="st1" d="M467.1,182.5c0.3,3.7,0.9,6.9,2,9.6c1,2.7,2.4,4.9,4.1,6.7s3.7,3.1,6,3.9c2.3,0.9,4.9,1.3,7.7,1.3
		c2.8,0,5.2-0.3,7.3-1c2-0.7,3.8-1.4,5.3-2.2s2.9-1.5,4-2.2s2.3-1,3.3-1c1.4,0,2.5,0.5,3.2,1.6l5,6.3c-1.9,2.2-4.1,4.1-6.5,5.7
		c-2.4,1.5-4.9,2.7-7.5,3.7c-2.6,0.9-5.2,1.6-7.9,1.9c-2.7,0.4-5.3,0.6-7.8,0.6c-5,0-9.7-0.8-14-2.5s-8-4.1-11.2-7.4
		c-3.2-3.3-5.7-7.3-7.5-12.1s-2.7-10.4-2.7-16.7c0-4.9,0.8-9.5,2.4-13.9c1.6-4.3,3.9-8.1,6.8-11.3c3-3.2,6.6-5.7,10.9-7.6
		c4.3-1.9,9.1-2.8,14.5-2.8c4.5,0,8.7,0.7,12.6,2.2c3.8,1.5,7.1,3.6,9.9,6.4c2.8,2.8,4.9,6.2,6.5,10.2c1.6,4,2.4,8.7,2.4,13.9
		c0,2.6-0.3,4.4-0.8,5.3c-0.6,0.9-1.6,1.4-3.2,1.4L467.1,182.5L467.1,182.5z M500.2,172.1c0-2.2-0.3-4.4-0.9-6.4s-1.6-3.7-2.8-5.2
		c-1.3-1.5-2.9-2.7-4.8-3.5c-1.9-0.9-4.2-1.3-6.8-1.3c-5,0-9,1.4-11.8,4.3c-2.9,2.9-4.7,6.9-5.5,12.1L500.2,172.1L500.2,172.1z"/>
	<path class="st1" d="M548.7,129.9v30h38V175h-38v41.3h-19V114.9h64v15H548.7z"/>
	<path class="st1" d="M626.7,123.4c0,1.5-0.3,2.9-0.9,4.2c-0.6,1.3-1.4,2.5-2.4,3.4c-1,1-2.2,1.8-3.5,2.4c-1.4,0.6-2.8,0.9-4.4,0.9
		c-1.5,0-2.9-0.3-4.2-0.9c-1.3-0.6-2.5-1.4-3.5-2.4s-1.8-2.1-2.4-3.4c-0.6-1.3-0.9-2.7-0.9-4.2s0.3-3,0.9-4.4
		c0.6-1.4,1.4-2.5,2.4-3.5s2.1-1.8,3.5-2.4c1.3-0.6,2.7-0.9,4.2-0.9s3,0.3,4.4,0.9s2.5,1.4,3.5,2.4s1.8,2.2,2.4,3.5
		C626.4,120.4,626.7,121.8,626.7,123.4z M624.3,144.3v72h-17.4v-72H624.3z"/>
	<path class="st1" d="M698.4,133.3c-0.6,1-1.2,1.7-1.8,2.1c-0.6,0.4-1.4,0.7-2.4,0.7s-2-0.4-3.2-1.1c-1.1-0.7-2.5-1.5-4.1-2.4
		s-3.5-1.7-5.6-2.4s-4.6-1.1-7.5-1.1c-2.6,0-4.9,0.3-6.9,0.9c-2,0.6-3.6,1.5-4.9,2.6c-1.3,1.1-2.3,2.5-3,4c-0.7,1.6-1,3.3-1,5.2
		c0,2.4,0.7,4.4,2,6s3.1,2.9,5.3,4.1c2.2,1.1,4.7,2.1,7.5,3s5.7,1.8,8.6,2.8c2.9,1,5.8,2.2,8.6,3.5s5.3,3,7.5,5.1
		c2.2,2,4,4.5,5.3,7.5c1.3,2.9,2,6.5,2,10.7c0,4.6-0.8,8.9-2.4,12.9c-1.6,4-3.9,7.5-6.9,10.5s-6.7,5.3-11.1,7
		c-4.4,1.7-9.3,2.6-15,2.6c-3.2,0-6.4-0.3-9.5-0.9c-3.1-0.6-6.1-1.5-9-2.7s-5.6-2.6-8.1-4.2c-2.5-1.6-4.8-3.5-6.7-5.5l5.5-9.1
		c0.5-0.7,1.1-1.2,1.8-1.6c0.7-0.4,1.5-0.7,2.4-0.7c1.2,0,2.4,0.5,3.8,1.4c1.4,1,3,2,4.8,3.2c1.9,1.2,4.1,2.2,6.6,3.2s5.5,1.4,9,1.4
		c5.4,0,9.5-1.3,12.5-3.8c2.9-2.5,4.4-6.2,4.4-11c0-2.7-0.7-4.8-2-6.5s-3.1-3.1-5.3-4.2c-2.2-1.1-4.7-2.1-7.5-2.9
		c-2.8-0.8-5.7-1.7-8.6-2.6c-2.9-0.9-5.8-2.1-8.6-3.4c-2.8-1.3-5.3-3-7.5-5.1s-4-4.7-5.3-7.9s-2-7.1-2-11.7c0-3.7,0.7-7.3,2.2-10.8
		s3.6-6.6,6.4-9.3c2.8-2.7,6.3-4.9,10.4-6.5c4.1-1.6,8.8-2.5,14.2-2.5c6,0,11.5,0.9,16.6,2.8s9.4,4.5,12.9,7.9L698.4,133.3z"/>
	<path class="st1" d="M770,159.6c-0.5,0.7-1,1.2-1.5,1.5c-0.5,0.4-1.2,0.6-2.1,0.6c-0.9,0-1.8-0.3-2.6-0.8s-1.8-1.1-3-1.8
		s-2.6-1.3-4.2-1.8c-1.6-0.5-3.6-0.8-6-0.8c-3,0-5.7,0.6-8,1.6c-2.3,1.1-4.2,2.7-5.7,4.7c-1.5,2.1-2.7,4.6-3.4,7.5s-1.1,6.2-1.1,9.9
		c0,3.8,0.4,7.3,1.2,10.2c0.8,3,2,5.5,3.5,7.5s3.4,3.6,5.6,4.6c2.2,1.1,4.7,1.6,7.4,1.6s5-0.3,6.7-1s3.1-1.4,4.3-2.2
		s2.2-1.6,3.1-2.2c0.9-0.7,1.8-1,2.9-1c1.4,0,2.5,0.5,3.2,1.6l5,6.3c-1.9,2.2-4,4.1-6.2,5.7c-2.2,1.5-4.6,2.7-7,3.7
		c-2.4,0.9-4.9,1.6-7.4,1.9c-2.6,0.4-5.1,0.6-7.6,0.6c-4.4,0-8.6-0.8-12.6-2.5c-3.9-1.7-7.4-4.1-10.3-7.3c-2.9-3.2-5.3-7.1-7-11.7
		c-1.7-4.6-2.6-9.9-2.6-15.8c0-5.3,0.8-10.2,2.3-14.7s3.8-8.4,6.7-11.7s6.6-5.9,10.9-7.8c4.4-1.9,9.4-2.8,15-2.8
		c5.4,0,10.1,0.9,14.1,2.6c4,1.7,7.7,4.2,10.9,7.4L770,159.6z"/>
	<path class="st1" d="M784.4,154.4c8.3-7.6,18.3-11.4,29.9-11.4c4.2,0,8,0.7,11.3,2.1c3.3,1.4,6.1,3.3,8.4,5.8
		c2.3,2.5,4,5.4,5.2,8.8c1.2,3.4,1.8,7.2,1.8,11.2v45.5h-7.9c-1.6,0-2.9-0.2-3.8-0.7c-0.9-0.5-1.6-1.5-2.1-3l-1.5-5.2
		c-1.8,1.6-3.6,3.1-5.3,4.3s-3.5,2.3-5.4,3.1s-3.9,1.5-6,1.9s-4.5,0.7-7.1,0.7c-3,0-5.8-0.4-8.4-1.2c-2.6-0.8-4.8-2-6.7-3.7
		c-1.9-1.6-3.3-3.7-4.4-6.1c-1-2.4-1.5-5.3-1.5-8.5c0-1.8,0.3-3.6,0.9-5.4c0.6-1.8,1.6-3.5,3-5.2c1.4-1.6,3.2-3.2,5.4-4.6
		c2.2-1.4,4.9-2.7,8.1-3.8c3.2-1.1,6.9-2,11.2-2.6c4.3-0.7,9.1-1.1,14.6-1.2V171c0-4.8-1-8.4-3.1-10.7s-5-3.5-8.9-3.5
		c-2.8,0-5.1,0.3-7,1c-1.8,0.7-3.5,1.4-4.9,2.2s-2.7,1.6-3.8,2.2c-1.1,0.7-2.4,1-3.8,1c-1.2,0-2.2-0.3-3.1-0.9
		c-0.8-0.6-1.5-1.4-2-2.2L784.4,154.4z M824.1,185.6c-5,0.2-9.2,0.7-12.6,1.3s-6.2,1.4-8.2,2.4c-2.1,1-3.5,2.1-4.4,3.4
		c-0.9,1.3-1.3,2.7-1.3,4.3c0,3,0.9,5.2,2.7,6.5s4.2,2,7.1,2c3.6,0,6.6-0.6,9.2-1.9s5.1-3.2,7.6-5.9L824.1,185.6L824.1,185.6z"/>
	<path class="st1" d="M873.5,153.2c1.5-1.5,3-2.8,4.6-4s3.3-2.3,5.1-3.2s3.7-1.5,5.8-2s4.3-0.7,6.7-0.7c3.9,0,7.4,0.7,10.5,2
		c3,1.3,5.6,3.2,7.6,5.6c2,2.4,3.6,5.3,4.6,8.6c1.1,3.3,1.6,7,1.6,11.1v45.8h-17.3v-45.8c0-4.4-1-7.8-3-10.2s-5.1-3.6-9.2-3.6
		c-3,0-5.8,0.7-8.4,2c-2.6,1.4-5.1,3.2-7.4,5.5v52.1h-17.3v-72H868c2.2,0,3.7,1.1,4.4,3.2L873.5,153.2z"/>
</g>
</svg>
