<svg version="1.1" id="el_4_oxH4SIM" xmlns="http://www.w3.org/2000/svg" xmlns:xlink="http://www.w3.org/1999/xlink" x="0px" y="0px" viewBox="0 0 80 80" style="enable-background:new 0 0 80 80;" xml:space="preserve"><style>@-webkit-keyframes kf_el_UKlPVjRRra_an_6M-VGZOF3{0%{-webkit-transform: translate(29.155555725097656px, 22.201826095581055px) translate(-29.155555725097656px, -22.201826095581055px) translate(-10px, -26px);transform: translate(29.155555725097656px, 22.201826095581055px) translate(-29.155555725097656px, -22.201826095581055px) translate(-10px, -26px);}10%{-webkit-transform: translate(29.155555725097656px, 22.201826095581055px) translate(-29.155555725097656px, -22.201826095581055px) translate(-3px, -26px);transform: translate(29.155555725097656px, 22.201826095581055px) translate(-29.155555725097656px, -22.201826095581055px) translate(-3px, -26px);}22.22%{-webkit-transform: translate(29.155555725097656px, 22.201826095581055px) translate(-29.155555725097656px, -22.201826095581055px) translate(15px, -26px);transform: translate(29.155555725097656px, 22.201826095581055px) translate(-29.155555725097656px, -22.201826095581055px) translate(15px, -26px);}33.33%{-webkit-transform: translate(29.155555725097656px, 22.201826095581055px) translate(-29.155555725097656px, -22.201826095581055px) translate(22px, -26px);transform: translate(29.155555725097656px, 22.201826095581055px) translate(-29.155555725097656px, -22.201826095581055px) translate(22px, -26px);}38.89%{-webkit-transform: translate(29.155555725097656px, 22.201826095581055px) translate(-29.155555725097656px, -22.201826095581055px) translate(-10px, -17px);transform: translate(29.155555725097656px, 22.201826095581055px) translate(-29.155555725097656px, -22.201826095581055px) translate(-10px, -17px);}46.67%{-webkit-transform: translate(29.155555725097656px, 22.201826095581055px) translate(-29.155555725097656px, -22.201826095581055px) translate(-5px, -17px);transform: translate(29.155555725097656px, 22.201826095581055px) translate(-29.155555725097656px, -22.201826095581055px) translate(-5px, -17px);}55.56%{-webkit-transform: translate(29.155555725097656px, 22.201826095581055px) translate(-29.155555725097656px, -22.201826095581055px) translate(15px, -17px);transform: translate(29.155555725097656px, 22.201826095581055px) translate(-29.155555725097656px, -22.201826095581055px) translate(15px, -17px);}64.44%{-webkit-transform: translate(29.155555725097656px, 22.201826095581055px) translate(-29.155555725097656px, -22.201826095581055px) translate(-10px, -8px);transform: translate(29.155555725097656px, 22.201826095581055px) translate(-29.155555725097656px, -22.201826095581055px) translate(-10px, -8px);}77.78%{-webkit-transform: translate(29.155555725097656px, 22.201826095581055px) translate(-29.155555725097656px, -22.201826095581055px) translate(5px, -8px);transform: translate(29.155555725097656px, 22.201826095581055px) translate(-29.155555725097656px, -22.201826095581055px) translate(5px, -8px);}83.33%{-webkit-transform: translate(29.155555725097656px, 22.201826095581055px) translate(-29.155555725097656px, -22.201826095581055px) translate(-10px, -1px);transform: translate(29.155555725097656px, 22.201826095581055px) translate(-29.155555725097656px, -22.201826095581055px) translate(-10px, -1px);}94.44%{-webkit-transform: translate(29.155555725097656px, 22.201826095581055px) translate(-29.155555725097656px, -22.201826095581055px) translate(-3px, -1px);transform: translate(29.155555725097656px, 22.201826095581055px) translate(-29.155555725097656px, -22.201826095581055px) translate(-3px, -1px);}100%{-webkit-transform: translate(29.155555725097656px, 22.201826095581055px) translate(-29.155555725097656px, -22.201826095581055px) translate(0px, 0px);transform: translate(29.155555725097656px, 22.201826095581055px) translate(-29.155555725097656px, -22.201826095581055px) translate(0px, 0px);}}@keyframes kf_el_UKlPVjRRra_an_6M-VGZOF3{0%{-webkit-transform: translate(29.155555725097656px, 22.201826095581055px) translate(-29.155555725097656px, -22.201826095581055px) translate(-10px, -26px);transform: translate(29.155555725097656px, 22.201826095581055px) translate(-29.155555725097656px, -22.201826095581055px) translate(-10px, -26px);}10%{-webkit-transform: translate(29.155555725097656px, 22.201826095581055px) translate(-29.155555725097656px, -22.201826095581055px) translate(-3px, -26px);transform: translate(29.155555725097656px, 22.201826095581055px) translate(-29.155555725097656px, -22.201826095581055px) translate(-3px, -26px);}22.22%{-webkit-transform: translate(29.155555725097656px, 22.201826095581055px) translate(-29.155555725097656px, -22.201826095581055px) translate(15px, -26px);transform: translate(29.155555725097656px, 22.201826095581055px) translate(-29.155555725097656px, -22.201826095581055px) translate(15px, -26px);}33.33%{-webkit-transform: translate(29.155555725097656px, 22.201826095581055px) translate(-29.155555725097656px, -22.201826095581055px) translate(22px, -26px);transform: translate(29.155555725097656px, 22.201826095581055px) translate(-29.155555725097656px, -22.201826095581055px) translate(22px, -26px);}38.89%{-webkit-transform: translate(29.155555725097656px, 22.201826095581055px) translate(-29.155555725097656px, -22.201826095581055px) translate(-10px, -17px);transform: translate(29.155555725097656px, 22.201826095581055px) translate(-29.155555725097656px, -22.201826095581055px) translate(-10px, -17px);}46.67%{-webkit-transform: translate(29.155555725097656px, 22.201826095581055px) translate(-29.155555725097656px, -22.201826095581055px) translate(-5px, -17px);transform: translate(29.155555725097656px, 22.201826095581055px) translate(-29.155555725097656px, -22.201826095581055px) translate(-5px, -17px);}55.56%{-webkit-transform: translate(29.155555725097656px, 22.201826095581055px) translate(-29.155555725097656px, -22.201826095581055px) translate(15px, -17px);transform: translate(29.155555725097656px, 22.201826095581055px) translate(-29.155555725097656px, -22.201826095581055px) translate(15px, -17px);}64.44%{-webkit-transform: translate(29.155555725097656px, 22.201826095581055px) translate(-29.155555725097656px, -22.201826095581055px) translate(-10px, -8px);transform: translate(29.155555725097656px, 22.201826095581055px) translate(-29.155555725097656px, -22.201826095581055px) translate(-10px, -8px);}77.78%{-webkit-transform: translate(29.155555725097656px, 22.201826095581055px) translate(-29.155555725097656px, -22.201826095581055px) translate(5px, -8px);transform: translate(29.155555725097656px, 22.201826095581055px) translate(-29.155555725097656px, -22.201826095581055px) translate(5px, -8px);}83.33%{-webkit-transform: translate(29.155555725097656px, 22.201826095581055px) translate(-29.155555725097656px, -22.201826095581055px) translate(-10px, -1px);transform: translate(29.155555725097656px, 22.201826095581055px) translate(-29.155555725097656px, -22.201826095581055px) translate(-10px, -1px);}94.44%{-webkit-transform: translate(29.155555725097656px, 22.201826095581055px) translate(-29.155555725097656px, -22.201826095581055px) translate(-3px, -1px);transform: translate(29.155555725097656px, 22.201826095581055px) translate(-29.155555725097656px, -22.201826095581055px) translate(-3px, -1px);}100%{-webkit-transform: translate(29.155555725097656px, 22.201826095581055px) translate(-29.155555725097656px, -22.201826095581055px) translate(0px, 0px);transform: translate(29.155555725097656px, 22.201826095581055px) translate(-29.155555725097656px, -22.201826095581055px) translate(0px, 0px);}}@-webkit-keyframes kf_el_muhQjdxv6F_an_FGqkTj-V6{0%{opacity: 0;}33.33%{opacity: 1;}100%{opacity: 1;}}@keyframes kf_el_muhQjdxv6F_an_FGqkTj-V6{0%{opacity: 0;}33.33%{opacity: 1;}100%{opacity: 1;}}@-webkit-keyframes kf_el_pWGMw-48R2_an_QWa4zslWj{0%{opacity: 0;}22.22%{opacity: 1;}100%{opacity: 1;}}@keyframes kf_el_pWGMw-48R2_an_QWa4zslWj{0%{opacity: 0;}22.22%{opacity: 1;}100%{opacity: 1;}}@-webkit-keyframes kf_el_RlxdG17_0P_an_2iqGdvBDE{0%{opacity: 0;}10%{opacity: 1;}100%{opacity: 1;}}@keyframes kf_el_RlxdG17_0P_an_2iqGdvBDE{0%{opacity: 0;}10%{opacity: 1;}100%{opacity: 1;}}@-webkit-keyframes kf_el_WkS0LqEx00_an_oPIj1-J1e{0%{opacity: 0;}55.56%{opacity: 1;}100%{opacity: 1;}}@keyframes kf_el_WkS0LqEx00_an_oPIj1-J1e{0%{opacity: 0;}55.56%{opacity: 1;}100%{opacity: 1;}}@-webkit-keyframes kf_el_zl2Xeto5US_an_Z9wSfXHzM{0%{opacity: 0;}41.11%{opacity: 1;}100%{opacity: 1;}}@keyframes kf_el_zl2Xeto5US_an_Z9wSfXHzM{0%{opacity: 0;}41.11%{opacity: 1;}100%{opacity: 1;}}@-webkit-keyframes kf_el_BkMTITF_2__an_2RlFgT1Hx{0%{opacity: 0;}77.78%{opacity: 1;}100%{opacity: 1;}}@keyframes kf_el_BkMTITF_2__an_2RlFgT1Hx{0%{opacity: 0;}77.78%{opacity: 1;}100%{opacity: 1;}}@-webkit-keyframes kf_el_8fCZVGJtqH_an_lcWyMMTNb{0%{opacity: 0;}94.44%{opacity: 1;}100%{opacity: 1;}}@keyframes kf_el_8fCZVGJtqH_an_lcWyMMTNb{0%{opacity: 0;}94.44%{opacity: 1;}100%{opacity: 1;}}#el_4_oxH4SIM *{-webkit-animation-duration: 3s;animation-duration: 3s;-webkit-animation-iteration-count: infinite;animation-iteration-count: infinite;-webkit-animation-timing-function: cubic-bezier(0, 0, 1, 1);animation-timing-function: cubic-bezier(0, 0, 1, 1);}#el_EMieeK0uBx{fill: #576bff;}#el_muhQjdxv6F{fill: #576bff;-webkit-animation-fill-mode: backwards;animation-fill-mode: backwards;opacity: 0;-webkit-animation-name: kf_el_muhQjdxv6F_an_FGqkTj-V6;animation-name: kf_el_muhQjdxv6F_an_FGqkTj-V6;-webkit-animation-timing-function: cubic-bezier(0, 0, 1, 1);animation-timing-function: cubic-bezier(0, 0, 1, 1);}#el_pWGMw-48R2{fill: #576bff;-webkit-animation-fill-mode: backwards;animation-fill-mode: backwards;opacity: 0;-webkit-animation-name: kf_el_pWGMw-48R2_an_QWa4zslWj;animation-name: kf_el_pWGMw-48R2_an_QWa4zslWj;-webkit-animation-timing-function: cubic-bezier(0, 0, 1, 1);animation-timing-function: cubic-bezier(0, 0, 1, 1);}#el_RlxdG17_0P{fill: #576bff;-webkit-animation-fill-mode: backwards;animation-fill-mode: backwards;opacity: 0;-webkit-animation-name: kf_el_RlxdG17_0P_an_2iqGdvBDE;animation-name: kf_el_RlxdG17_0P_an_2iqGdvBDE;-webkit-animation-timing-function: cubic-bezier(0, 0, 1, 1);animation-timing-function: cubic-bezier(0, 0, 1, 1);}#el_WkS0LqEx00{fill: #576bff;-webkit-animation-fill-mode: backwards;animation-fill-mode: backwards;opacity: 0;-webkit-animation-name: kf_el_WkS0LqEx00_an_oPIj1-J1e;animation-name: kf_el_WkS0LqEx00_an_oPIj1-J1e;-webkit-animation-timing-function: cubic-bezier(0, 0, 1, 1);animation-timing-function: cubic-bezier(0, 0, 1, 1);}#el_zl2Xeto5US{fill: #576bff;-webkit-animation-fill-mode: backwards;animation-fill-mode: backwards;opacity: 0;-webkit-animation-name: kf_el_zl2Xeto5US_an_Z9wSfXHzM;animation-name: kf_el_zl2Xeto5US_an_Z9wSfXHzM;-webkit-animation-timing-function: cubic-bezier(0, 0, 1, 1);animation-timing-function: cubic-bezier(0, 0, 1, 1);}#el_BkMTITF_2_{fill: #576bff;-webkit-animation-fill-mode: backwards;animation-fill-mode: backwards;opacity: 0;-webkit-animation-name: kf_el_BkMTITF_2__an_2RlFgT1Hx;animation-name: kf_el_BkMTITF_2__an_2RlFgT1Hx;-webkit-animation-timing-function: cubic-bezier(0, 0, 1, 1);animation-timing-function: cubic-bezier(0, 0, 1, 1);}#el_8fCZVGJtqH{fill: #576bff;-webkit-animation-fill-mode: backwards;animation-fill-mode: backwards;opacity: 0;-webkit-animation-name: kf_el_8fCZVGJtqH_an_lcWyMMTNb;animation-name: kf_el_8fCZVGJtqH_an_lcWyMMTNb;-webkit-animation-timing-function: cubic-bezier(0, 0, 1, 1);animation-timing-function: cubic-bezier(0, 0, 1, 1);}#el_UKlPVjRRra{fill: #1AE5BE;}#el_UKlPVjRRra_an_6M-VGZOF3{-webkit-animation-fill-mode: backwards;animation-fill-mode: backwards;-webkit-transform: translate(29.155555725097656px, 22.201826095581055px) translate(-29.155555725097656px, -22.201826095581055px) translate(-10px, -26px);transform: translate(29.155555725097656px, 22.201826095581055px) translate(-29.155555725097656px, -22.201826095581055px) translate(-10px, -26px);-webkit-animation-name: kf_el_UKlPVjRRra_an_6M-VGZOF3;animation-name: kf_el_UKlPVjRRra_an_6M-VGZOF3;-webkit-animation-timing-function: cubic-bezier(0, 0, 1, 1);animation-timing-function: cubic-bezier(0, 0, 1, 1);}</style>

<g id="el_yDrcNURFzD">
	<path d="M66.1,27.4c0.5,0,0.9-0.4,0.9-0.9V10.9c0-2.2-1.8-4-4-4H42.5c-1.1-2.3-3.3-3.7-5.8-3.7s-4.8,1.4-5.8,3.7H10.2&#10;&#9;&#9;c-2.2,0-4,1.8-4,4v63.9c0,2.2,1.8,4,4,4H63c2.2,0,4-1.8,4-4v-39c0-0.5-0.4-0.9-0.9-0.9s-0.9,0.4-0.9,0.9v39c0,1.2-1,2.1-2.1,2.1&#10;&#9;&#9;H10.2c-1.2,0-2.1-1-2.1-2.1V10.9c0-1.2,1-2.1,2.1-2.1h20c0,0.3-0.1,0.6-0.1,0.9v1.8H21c-0.5,0-0.9,0.4-0.9,0.9v2.9h-4.2&#10;&#9;&#9;c-1.4,0-2.5,1.1-2.5,2.5v50c0,1.4,1.1,2.5,2.5,2.5h33.6c0.1,0,0.2,0,0.4,0c0.1,0,0.1,0,0.2,0c0.3,0,0.5-0.1,0.7-0.3&#10;&#9;&#9;c0.2-0.1,0.5-0.3,0.7-0.5l7.7-7.7c0.5-0.5,0.8-1.2,0.8-2V40.5c0-0.5-0.4-0.9-0.9-0.9S58,40,58,40.5v19.1h-4.9c-2.2,0-4,1.8-4,4v4.8&#10;&#9;&#9;H15.8c-0.3,0-0.6-0.3-0.6-0.6v-50c0-0.3,0.3-0.6,0.6-0.6H20v2.6c0,0.5,0.4,0.9,0.9,0.9h31.3c0.5,0,0.9-0.4,0.9-0.9v-2.6h4.2&#10;&#9;&#9;c0.3,0,0.6,0.3,0.6,0.6v13.3c0,0.5,0.4,0.9,0.9,0.9s0.9-0.4,0.9-0.9V17.8c0-1.4-1.1-2.5-2.5-2.5H53v-2.9c0-0.5-0.4-0.9-0.9-0.9&#10;&#9;&#9;h-9.2V9.7c0-0.3,0-0.6-0.1-0.9h20c1.2,0,2.1,1,2.1,2.1v15.6C65.2,27,65.6,27.4,66.1,27.4z M51,63.6c0-1.2,1-2.1,2.1-2.1h3.7&#10;&#9;&#9;L51,67.3V63.6z M51.4,13.4v5.5H21.9v-5.5h9.2c0.5,0,0.9-0.4,0.9-0.9V9.7c0-1.7,0.8-3.2,2.3-4c1.4-0.8,3.2-0.8,4.6,0&#10;&#9;&#9;c1.4,0.8,2.3,2.4,2.3,4v2.8c0,0.5,0.4,0.9,0.9,0.9H51.4z" id="el_EMieeK0uBx"/>
</g>
<g id="el_3TgWy_vmkp">
	<path d="M52.3,28.6h-4c-0.5,0-0.9,0.4-0.9,0.9s0.4,0.9,0.9,0.9h4c0.5,0,0.9-0.4,0.9-0.9S52.8,28.6,52.3,28.6z" id="el_muhQjdxv6F"/>
	<path d="M45.6,29.5c0-0.5-0.4-0.9-0.9-0.9H30.6c-0.5,0-0.9,0.4-0.9,0.9s0.4,0.9,0.9,0.9h14.1&#10;&#9;&#9;C45.2,30.4,45.6,30,45.6,29.5z" id="el_pWGMw-48R2"/>
	<path d="M21,30.4h6c0.5,0,0.9-0.4,0.9-0.9s-0.4-0.9-0.9-0.9h-6c-0.5,0-0.9,0.4-0.9,0.9C20,30,20.4,30.4,21,30.4z" id="el_RlxdG17_0P"/>
	<path d="M43.4,37.8c0-0.5-0.4-0.9-0.9-0.9H25.8c-0.5,0-0.9,0.4-0.9,0.9s0.4,0.9,0.9,0.9h16.7&#10;&#9;&#9;C43,38.7,43.4,38.3,43.4,37.8z" id="el_WkS0LqEx00"/>
	<path d="M21,38.7h1.7c0.5,0,0.9-0.4,0.9-0.9s-0.4-0.9-0.9-0.9H21c-0.5,0-0.9,0.4-0.9,0.9S20.4,38.7,21,38.7z" id="el_zl2Xeto5US"/>
	<path d="M33.1,46.6c0-0.5-0.4-0.9-0.9-0.9H21c-0.5,0-0.9,0.4-0.9,0.9s0.4,0.9,0.9,0.9h11.2&#10;&#9;&#9;C32.6,47.5,33.1,47.1,33.1,46.6z" id="el_BkMTITF_2_"/>
	<path d="M21,53.8c-0.5,0-0.9,0.4-0.9,0.9s0.4,0.9,0.9,0.9h4.5c0.5,0,0.9-0.4,0.9-0.9s-0.4-0.9-0.9-0.9H21z" id="el_8fCZVGJtqH"/>
</g>
<g id="el_UKlPVjRRra_an_6M-VGZOF3" data-animator-group="true" data-animator-type="0"><path d="M76.3,25.4L75.4,24c-1.2-1.8-3.7-2.4-5.6-1.1l-1,0.7l0,0L67,24.8L65.1,26L35.5,45.5l0,0l0,0c0,0-0.1,0-0.1,0.1&#10;&#9;l0,0c0,0,0,0.1-0.1,0.1l0,0c0,0,0,0,0,0.1l0,0L31,53.2L29.6,54c-0.4,0.3-0.6,0.9-0.3,1.3s0.9,0.6,1.3,0.3l1.3-0.8l8.4-1l0,0l0,0h0.1&#10;&#9;l0,0h0.1l0,0c0,0,0,0,0.1,0l0,0L75.2,31C77,29.7,77.6,27.2,76.3,25.4z M66.6,27.2L66.6,27.2l2.5-1.6l1.1,1.7L38.4,48.2l-1.1-1.7&#10;&#9;L66.6,27.2z M33.4,52.6L36,48l1.3,2l1.3,2L33.4,52.6z M40.5,51.5l-1.1-1.7l31.8-20.9l1.1,1.7L40.5,51.5z M74.2,29.4L74,29.6l-3.3-5&#10;&#9;l0.2-0.2c1-0.6,2.3-0.4,3,0.6l0.9,1.4C75.7,27.4,75.8,28.8,74.2,29.4z" id="el_UKlPVjRRra"/></g>
</svg>